<svg width="501" height="232" viewBox="0 0 501 232" fill="none" xmlns="http://www.w3.org/2000/svg">
<path d="M456.587 107.525C445.537 107.525 436.188 101.15 436.188 93.7129C436.188 86.2754 445.537 79.9004 456.587 79.9004C467.637 79.9004 476.988 86.2754 476.988 93.7129C476.775 101.15 467.637 107.525 456.587 107.525Z" fill="#E07E1E"/>
<path d="M456.587 81.8129C467.425 81.8129 475.075 87.9754 475.075 93.5004C475.075 99.0254 467.425 105.188 456.587 105.188C445.75 105.188 438.1 99.0254 438.1 93.5004C438.1 87.9754 445.75 81.8129 456.587 81.8129ZM456.587 77.7754C444.475 77.7754 434.487 85.0004 434.487 93.7129C434.487 102.425 444.475 109.65 456.587 109.65C468.7 109.65 478.687 102.425 478.687 93.7129C478.687 84.7879 468.7 77.7754 456.587 77.7754Z" fill="#3E4347"/>
<path d="M424.713 53.9758C414.725 53.9758 406.65 47.1758 406.65 38.8883C406.65 30.6008 414.725 23.8008 424.713 23.8008C434.7 23.8008 442.775 30.6008 442.775 38.8883C442.775 47.1758 434.488 53.9758 424.713 53.9758Z" fill="#E07E1E"/>
<path d="M424.712 25.925C433.425 25.925 440.862 31.875 440.862 38.675C440.862 45.6875 433.425 51.425 424.712 51.425C416 51.425 408.562 45.475 408.562 38.675C408.562 31.875 415.787 25.925 424.712 25.925ZM424.712 21.25C413.662 21.25 404.737 29.1125 404.737 38.675C404.737 48.2375 413.662 56.1 424.712 56.1C435.762 56.1 444.687 48.2375 444.687 38.675C444.687 29.1125 435.762 21.25 424.712 21.25Z" fill="#3E4347"/>
<path d="M461.687 67.7867C457.437 67.7867 453.187 65.6617 450 61.8367C447.025 58.4367 445.325 53.9742 444.9 49.5117C444.687 45.0492 445.75 41.2242 448.087 38.4617C450.212 35.9117 453.187 34.6367 456.375 34.6367C460.625 34.6367 464.875 36.7617 468.062 40.5867C471.037 43.9867 472.737 48.4492 473.162 52.9117C473.375 57.3742 472.312 61.1992 469.975 63.9617C467.85 66.2992 465.087 67.7867 461.687 67.7867Z" fill="#E07E1E"/>
<path d="M456.587 36.55C460.2 36.55 464.025 38.4625 466.787 41.8625C469.337 45.05 471.037 48.875 471.25 52.9125C471.462 56.525 470.612 59.925 468.7 62.2625C466.575 64.8125 463.812 65.45 461.9 65.45C458.287 65.45 454.462 63.5375 451.7 60.1375C449.15 56.95 447.45 53.125 447.237 49.0875C447.025 45.475 447.875 42.075 449.787 39.7375C451.912 37.1875 454.675 36.55 456.587 36.55ZM456.587 31.875C452.975 31.875 449.575 33.3625 447.025 36.3375C441.287 43.1375 442.137 55.25 448.937 63.1125C452.762 67.575 457.437 69.9125 461.9 69.9125C465.512 69.9125 468.912 68.425 471.462 65.45C477.2 58.65 476.35 46.5375 469.55 38.675C465.937 34.2125 461.05 31.875 456.587 31.875Z" fill="#3E4347"/>
<path d="M426.412 112.412C423.65 112.412 420.887 111.774 417.912 110.499C409.837 107.099 404.312 99.6617 406.012 94.1367C407.075 90.9492 410.687 88.8242 415.575 88.8242C418.337 88.8242 421.1 89.4617 424.075 90.7367C428.112 92.4367 431.725 95.4117 434.062 98.5992C435.975 101.574 436.825 104.549 435.975 106.887C434.912 110.287 431.3 112.412 426.412 112.412Z" fill="#E07E1E"/>
<path d="M415.787 91.3758C418.337 91.3758 420.887 92.0133 423.437 93.0758C427.262 94.7758 430.45 97.3258 432.362 100.301C433.85 102.638 434.487 104.763 434.062 106.251C433.425 108.376 430.237 109.863 426.412 109.863C423.862 109.863 421.312 109.226 418.762 108.163C411.325 104.976 407.075 98.6008 408.137 94.9883C408.775 92.8633 411.962 91.3758 415.787 91.3758ZM415.787 86.4883C410.262 86.4883 405.8 89.0383 404.312 93.2883C402.187 99.8758 408.137 108.588 417.275 112.626C420.462 113.901 423.65 114.538 426.412 114.538C431.937 114.538 436.4 111.988 437.887 107.738C440.012 101.151 434.062 92.4383 424.925 88.4008C421.737 87.1258 418.55 86.4883 415.787 86.4883Z" fill="#3E4347"/>
<path d="M439.375 39.1004C432.788 36.7629 425.562 35.2754 417.7 35.2754C415.362 35.2754 413.238 35.4879 411.113 35.7004C414.938 45.4754 416.85 56.1004 416.85 66.9379C416.85 79.0504 414.3 90.9504 409.625 101.575C412.175 102 414.937 102 417.7 102C421.312 102 424.713 102 427.9 101.788C426.838 96.4754 426.412 90.9504 426.412 85.2129C426.412 68.4254 430.875 52.2754 439.375 39.1004Z" fill="#F29A2E"/>
<path d="M396.45 39.7383C375.838 49.3008 369.888 70.9758 369.888 70.9758C369.888 70.9758 371.375 72.2508 372.013 73.7383C372.65 75.0133 368.188 75.6508 369.463 77.7758C373.075 83.7258 383.7 92.4383 394.75 97.5383C399.638 88.4008 402.188 77.9883 402.188 66.9383C402.188 57.3758 400.275 48.0258 396.45 39.7383Z" fill="#F29A2E"/>
<path d="M493.138 71.1875C493.138 64.175 501.425 58.8625 493.138 48.875C493.138 48.875 488.463 54.4 484 58.0125C483.788 60.775 483.575 63.75 483.575 66.5125C483.575 74.1625 484.638 81.8125 486.763 89.0375C490.8 91.1625 493.138 93.2875 493.138 93.2875C501.425 83.5125 493.138 78.625 493.138 71.1875Z" fill="#F29A2E"/>
<path d="M469.763 57.5875C463.813 52.7 457.863 48.2375 451.275 44.625C447.875 52.9125 445.963 61.8375 445.963 71.1875C445.963 80.325 447.663 89.0375 450.85 97.1125C457.013 94.9875 463.6 91.8 471.463 87.55C469.975 80.75 469.338 73.7375 469.338 66.5125C469.338 63.75 469.338 60.5625 469.763 57.5875Z" fill="#F29A2E"/>
<path d="M404.1 66.9379C404.1 78.4129 401.337 89.2504 396.662 98.3879C399.85 99.6629 403.462 100.725 407.5 101.363C412.175 91.1629 414.937 79.4754 414.937 67.1504C414.937 56.1004 412.812 45.6879 408.987 36.3379C405.162 36.9754 401.55 38.0379 398.362 39.3129C401.975 47.1754 404.1 56.7379 404.1 66.9379Z" fill="white"/>
<path d="M410.9 35.6992C410.262 35.6992 409.625 35.9117 408.775 35.9117C412.6 45.2617 414.725 55.6742 414.725 66.7242C414.725 79.2617 411.962 90.9492 407.287 100.937C407.925 101.149 408.775 101.149 409.412 101.149C414.087 90.5242 416.637 78.6242 416.637 66.5117C416.85 56.0992 414.725 45.4742 410.9 35.6992Z" fill="#3E4347"/>
<path d="M404.1 66.9371C404.1 56.9496 401.975 47.3871 398.362 39.0996C397.725 39.3121 397.088 39.5246 396.45 39.9496C400.275 48.2371 402.188 57.5871 402.188 67.1496C402.188 78.1996 399.637 88.6121 394.75 97.7496C395.388 97.9621 396.025 98.3871 396.662 98.5996C401.337 89.0371 404.1 78.4121 404.1 66.9371Z" fill="#3E4347"/>
<path d="M428.325 85.2117C428.325 90.7367 428.963 96.2617 429.813 101.574C436.188 101.149 442.35 100.087 448.938 97.9617C445.75 89.8867 443.838 80.7492 443.838 71.3992C443.838 61.4117 445.75 52.0617 449.15 43.7742C446.6 42.2867 443.838 41.0117 441.075 39.9492C433.213 52.4867 428.325 68.2117 428.325 85.2117Z" fill="white"/>
<path d="M428.325 85.2121C428.325 68.2121 433.212 52.4871 441.287 39.9496C440.65 39.7371 440.012 39.5246 439.375 39.0996C430.875 52.2746 426.412 68.4246 426.412 85.2121C426.412 90.7371 426.837 96.2621 427.9 101.787C428.537 101.787 429.175 101.787 429.812 101.575C428.962 96.2621 428.325 90.7371 428.325 85.2121Z" fill="#3E4347"/>
<path d="M451.274 44.625C450.637 44.2 449.999 43.9875 449.574 43.5625C446.174 51.85 444.262 61.2 444.262 71.1875C444.262 80.75 445.962 89.675 449.362 97.75L451.274 97.1125C448.087 89.0375 446.387 80.1125 446.387 71.1875C445.962 61.8375 447.662 52.9125 451.274 44.625Z" fill="#3E4347"/>
<path d="M472.525 59.7133C472.312 59.5008 471.888 59.2883 471.675 58.8633C471.463 61.6258 471.25 64.1758 471.25 66.7258C471.25 73.5258 471.888 80.3258 473.375 86.7008C473.8 86.4883 474.225 86.0633 474.863 85.8508C476.563 84.7883 480.6 86.2758 484.425 87.9758C482.725 81.1758 481.663 74.1633 481.663 66.7258C481.663 64.3883 481.875 62.0508 481.875 59.7133C478.688 61.6258 475.5 62.2633 472.525 59.7133Z" fill="white"/>
<path d="M471.25 66.7254C471.25 64.1754 471.462 61.6254 471.462 59.0754C470.825 58.6504 470.188 58.0129 469.55 57.5879C469.338 60.7754 469.125 63.7504 469.125 66.7254C469.125 73.7379 469.763 80.7504 471.25 87.7629C471.888 87.3379 472.525 87.1254 473.163 86.7004C471.888 80.1129 471.25 73.5254 471.25 66.7254Z" fill="#3E4347"/>
<path d="M483.788 58.2246C483.15 58.8621 482.3 59.2871 481.663 59.7121C481.45 62.0496 481.45 64.3871 481.45 66.7246C481.45 74.1621 482.513 81.3871 484.213 87.9746C485.063 88.3996 485.913 88.8246 486.55 89.2496C484.425 82.0246 483.363 74.3746 483.363 66.7246C483.363 63.7496 483.575 60.9871 483.788 58.2246Z" fill="#3E4347"/>
<path d="M419.613 59.5001C413.45 65.8751 412.175 80.1126 422.588 80.9626C435.125 82.0251 441.288 91.5876 447.45 85.2126C453.613 78.8376 451.488 69.0626 444.263 61.6251C437.038 53.9751 425.988 53.1251 419.613 59.5001Z" fill="#E07E1E"/>
<path d="M419.825 59.5C416.637 62.6875 415.15 67.3625 415.363 71.6125C415.575 73.7375 416.212 75.8625 417.7 77.35C418.975 78.8375 420.887 79.475 423.012 79.6875C427.687 79.9 432.15 81.6 436.188 83.5125C438.312 84.3625 440.225 85.2125 442.137 85.6375C444.05 85.85 445.325 85.2125 446.6 83.725C447.875 82.2375 448.725 80.5375 449.15 78.625C449.575 76.7125 449.363 74.8 448.725 72.8875C447.663 69.0625 445.113 65.45 442.35 62.475C439.588 59.7125 435.975 57.375 431.938 56.3125C429.812 55.8875 427.688 55.8875 425.562 56.3125C423.438 56.95 421.312 58.0125 419.825 59.5ZM419.613 59.2875C422.8 55.8875 427.263 54.1875 432.15 54.1875C436.825 54.1875 441.712 56.1 445.325 59.5C448.725 62.6875 451.7 66.9375 452.975 71.825C453.613 74.375 453.613 76.925 452.975 79.475C452.338 82.025 451.062 84.3625 449.15 86.0625C448.18 87.0563 447.025 87.8505 445.75 88.4C444.475 88.825 442.987 89.0375 441.712 88.825C439.162 88.4 437.037 87.125 435.125 86.275C431.088 84.3625 427.262 82.6625 423.012 82.025C421.95 81.8125 420.675 81.6 419.613 80.9625C418.55 80.325 417.487 79.475 416.85 78.625C415.362 76.5 414.938 74.1625 414.938 71.825C414.938 69.4875 415.575 67.15 416.425 65.025C416.85 62.9 417.913 60.9875 419.613 59.2875Z" fill="#3E4347"/>
<path d="M387.95 82.6617C394.874 82.6617 400.487 76.6679 400.487 69.2742C400.487 61.8805 394.874 55.8867 387.95 55.8867C381.025 55.8867 375.412 61.8805 375.412 69.2742C375.412 76.6679 381.025 82.6617 387.95 82.6617Z" fill="#FCFCFA"/>
<path d="M387.95 78.4117C392.762 78.4117 396.662 74.3207 396.662 69.2742C396.662 64.2277 392.762 60.1367 387.95 60.1367C383.138 60.1367 379.237 64.2277 379.237 69.2742C379.237 74.3207 383.138 78.4117 387.95 78.4117Z" fill="#29251C"/>
<path d="M19.7637 196.598C15.8543 200.507 13.8997 198.77 11.5106 196.381C9.12153 193.991 7.38403 192.037 11.2934 188.127C15.2028 184.218 22.1528 179.006 24.5418 181.395C26.9309 183.566 23.6731 192.688 19.7637 196.598Z" fill="#89664C"/>
<path d="M108.811 182.481C109.028 181.83 109.462 181.178 109.68 180.309L130.747 185.088L111.417 174.88C112.286 171.839 112.72 168.581 112.938 165.323L134.656 162.5L112.938 159.677C112.72 156.419 112.286 153.161 111.417 150.12L130.747 139.913L109.68 144.691C108.377 141.433 106.856 138.609 105.119 135.786L119.453 120.148L102.078 131.442C99.9062 128.619 97.3 126.012 94.4766 123.841L102.078 105.162L90.35 120.8C87.0922 118.628 83.6172 116.891 79.925 115.587L80.7938 97.3438L75.5812 114.067C71.6719 113.198 67.3281 112.547 62.9844 112.547H62.7672L58.2062 97.3438L58.8578 112.764C54.0797 113.198 49.3016 114.284 44.9578 116.022L36.9219 105.162L41.9172 117.108C37.1391 119.28 32.7953 122.32 28.8859 125.795L19.5469 119.931L26.9312 127.967C23.0219 132.094 19.7641 136.655 17.5922 141.867L8.47031 139.695L16.7234 144.039C14.5516 149.469 13.4656 155.116 13.2484 161.197L4.34375 162.5L13.0312 163.586C13.0312 167.93 13.9 172.273 14.9859 176.4C24.1078 174.228 34.9672 173.142 47.1297 173.142C68.1969 173.142 90.35 176.617 108.811 182.481Z" fill="#C1875D"/>
<path d="M8.25293 185.088L17.3748 182.916C19.7639 188.129 23.0217 192.907 26.7139 196.816L19.5467 205.069L28.8857 198.988C32.7951 202.463 37.1389 205.504 41.917 207.675L36.9217 219.838L44.9576 209.196C49.3014 210.933 54.0795 212.019 58.8576 212.454L58.2061 227.657L62.767 212.454H62.9842C67.3279 212.454 71.6717 211.802 75.5811 210.933L80.7936 227.657L79.9248 209.413C83.617 208.11 87.092 206.372 90.3498 204.2L102.078 219.838L94.4764 201.377C97.2998 199.205 99.6889 196.599 102.078 193.775L119.453 205.069L105.119 189.432C106.422 187.26 107.725 184.871 108.594 182.482C90.1326 176.618 67.9795 173.143 46.9123 173.143C34.7498 173.143 24.1076 174.229 14.7686 176.4C15.2029 177.921 15.6373 179.441 16.2889 180.744L8.25293 185.088Z" fill="#FFE2B3"/>
<path d="M30.8408 164.455C38.0378 164.455 43.8721 158.426 43.8721 150.989C43.8721 143.552 38.0378 137.523 30.8408 137.523C23.6439 137.523 17.8096 143.552 17.8096 150.989C17.8096 158.426 23.6439 164.455 30.8408 164.455Z" fill="#FCFCFA"/>
<path d="M30.8402 160.111C35.7582 160.111 39.7449 156.027 39.7449 150.989C39.7449 145.951 35.7582 141.867 30.8402 141.867C25.9223 141.867 21.9355 145.951 21.9355 150.989C21.9355 156.027 25.9223 160.111 30.8402 160.111Z" fill="#29251C"/>
<path d="M69.5002 168.581C78.8562 168.581 86.4408 160.705 86.4408 150.989C86.4408 141.273 78.8562 133.396 69.5002 133.396C60.1441 133.396 52.5596 141.273 52.5596 150.989C52.5596 160.705 60.1441 168.581 69.5002 168.581Z" fill="#FCFCFA"/>
<path d="M69.4996 163.151C75.9769 163.151 81.2277 157.706 81.2277 150.989C81.2277 144.272 75.9769 138.826 69.4996 138.826C63.0223 138.826 57.7715 144.272 57.7715 150.989C57.7715 157.706 63.0223 163.151 69.4996 163.151Z" fill="#29251C"/>
<path d="M111.417 190.952C117.281 196.816 114.675 200.074 111.2 203.766C107.725 207.459 104.467 210.065 98.3859 203.984C92.5218 198.119 84.2687 187.26 87.9609 183.568C91.4359 180.093 105.336 185.088 111.417 190.952Z" fill="#C1875D"/>
<path d="M27.3652 174.228C38.659 174.228 38.4418 168.581 45.3918 167.061C51.0387 165.975 55.3824 172.056 64.0699 173.793" fill="#FFE2B3"/>
<path d="M38.0078 177.052C38.8766 175.532 39.7453 174.011 40.8312 172.925C42.1344 171.622 43.6547 170.536 45.3922 170.102C47.1297 169.668 49.0844 169.885 50.8219 170.754C52.3422 171.622 53.6453 172.925 54.5141 174.446C53.2109 173.36 51.6906 172.491 50.1703 172.057C48.65 171.405 47.1297 171.405 45.8266 171.839C44.3063 172.274 43.0031 172.925 41.7 174.011C40.3969 174.663 39.3109 175.966 38.0078 177.052Z" fill="#29251C"/>
<path d="M39.7452 178.789C39.3109 179.006 38.6593 179.223 38.2249 179.223C37.5734 179.223 36.9218 179.223 36.4874 178.789C35.8359 178.355 35.4015 177.92 35.4015 177.269C35.1843 176.617 35.4015 176.183 35.6187 175.531C35.8359 175.966 36.0531 176.617 36.2702 177.052C36.4874 177.486 36.7046 177.703 37.139 177.92C37.5734 178.355 38.6593 178.572 39.7452 178.789Z" fill="#E0BB86"/>
<path d="M56.9031 172.707C57.1203 173.141 57.3375 173.576 57.3375 174.01C57.3375 174.445 57.3375 175.096 57.1203 175.53C56.9031 175.965 56.2516 176.399 55.8172 176.399C55.3828 176.399 54.7313 176.399 54.2969 176.182L55.6 175.53C56.0344 175.313 56.2516 175.096 56.2516 174.879C56.4687 174.445 56.6859 173.576 56.9031 172.707Z" fill="#E0BB86"/>
<path d="M41.4824 178.354C42.134 177.702 42.5684 176.833 43.4371 176.399C44.0887 175.747 44.9574 175.313 46.0434 175.096C46.9121 174.879 47.998 174.879 48.8668 175.313C49.7355 175.747 50.3871 176.399 51.0387 177.05C50.1699 176.616 49.5184 176.182 48.6496 175.965C47.7809 175.747 47.1293 175.747 46.2605 175.965C45.3918 176.182 44.7402 176.399 43.8715 176.833C43.0027 177.485 42.3512 177.919 41.4824 178.354Z" fill="#E0BB86"/>
<path d="M102.977 163.714C105.149 163.024 106.116 159.963 105.136 156.876C104.157 153.789 101.602 151.846 99.4293 152.535C97.2571 153.224 96.2903 156.286 97.2699 159.373C98.2495 162.459 100.805 164.403 102.977 163.714Z" fill="#89664C"/>
<path d="M102.466 147.942C104.067 147.434 104.806 145.261 104.117 143.089C103.427 140.917 101.571 139.567 99.9706 140.075C98.3699 140.583 97.6308 142.755 98.3199 144.928C99.0089 147.1 100.865 148.449 102.466 147.942Z" fill="#89664C"/>
<path d="M96.3644 150.021C97.3935 149.694 97.875 148.318 97.44 146.945C97.005 145.573 95.8181 144.726 94.7891 145.052C93.76 145.378 93.2784 146.755 93.7134 148.127C94.1485 149.499 95.3353 150.347 96.3644 150.021Z" fill="#89664C"/>
<path d="M34.9688 131.16C35.9524 129.512 35.8312 127.628 34.6983 126.952C33.5653 126.276 31.8494 127.063 30.8659 128.711C29.8823 130.359 30.0034 132.243 31.1364 132.92C32.2694 133.596 33.9852 132.808 34.9688 131.16Z" fill="#89664C"/>
<path d="M39.745 132.746C38.0075 131.66 37.7903 129.054 39.3106 126.665C40.8309 124.276 43.22 123.19 44.9575 124.059C46.695 125.145 46.9122 127.751 45.3919 130.14C43.8716 132.746 41.4825 133.832 39.745 132.746Z" fill="#89664C"/>
<path d="M39.8832 123.707C40.4981 122.678 40.4121 121.494 39.6912 121.063C38.9702 120.633 37.8873 121.119 37.2725 122.149C36.6576 123.179 36.7436 124.363 37.4646 124.793C38.1855 125.223 39.2684 124.737 39.8832 123.707Z" fill="#89664C"/>
</svg>
