<svg width="224" height="175" viewBox="0 0 224 175" fill="none" xmlns="http://www.w3.org/2000/svg">
<path d="M97.2219 137.734C97.2219 131.937 105.338 118.853 101.528 114.878C97.3876 110.572 87.7813 128.956 82.9782 128.956C77.1813 128.956 73.7032 121.834 70.8876 118.853C68.5688 116.534 75.1938 107.259 72.2126 106.597C59.7907 103.615 58.1344 110.903 51.3438 109.081C46.0438 107.756 40.5782 106.928 35.2782 106.928C15.4032 106.928 11.5938 121.172 8.11568 134.422C7.45318 136.409 27.4938 153.469 27.4938 153.469C27.4938 153.469 12.2563 144.856 12.5876 146.844C15.0719 157.775 25.3407 164.731 36.9344 167.381C40.2469 168.209 43.7251 168.54 47.0376 168.54C68.2376 168.54 71.5501 152.144 82.9782 150.156C89.9344 148.997 97.3876 162.412 101.363 158.272C105.669 153.965 97.2219 144.525 97.2219 137.734Z" fill="#728389"/>
<path d="M79.6658 169.203C77.6783 171.191 73.7033 173.675 69.397 169.203C65.0908 164.731 60.4533 156.781 62.4408 154.794C64.4283 152.806 72.047 157.609 76.3533 162.081C80.6595 166.387 81.6533 167.216 79.6658 169.203Z" fill="#8D9BA3"/>
<path d="M55.3186 132.766C57.3309 132.766 58.9623 130.393 58.9623 127.466C58.9623 124.539 57.3309 122.166 55.3186 122.166C53.3062 122.166 51.6748 124.539 51.6748 127.466C51.6748 130.393 53.3062 132.766 55.3186 132.766Z" fill="#8D9BA3"/>
<path d="M62.2746 138.066C63.3723 138.066 64.2621 136.213 64.2621 133.926C64.2621 131.639 63.3723 129.785 62.2746 129.785C61.1769 129.785 60.2871 131.639 60.2871 133.926C60.2871 136.213 61.1769 138.066 62.2746 138.066Z" fill="#8D9BA3"/>
<path d="M66.0846 131.442C66.6334 131.442 67.0783 130.181 67.0783 128.626C67.0783 127.071 66.6334 125.811 66.0846 125.811C65.5357 125.811 65.0908 127.071 65.0908 128.626C65.0908 130.181 65.5357 131.442 66.0846 131.442Z" fill="#8D9BA3"/>
<path d="M8.77852 144.857C10.3335 144.857 11.5941 143.522 11.5941 141.876C11.5941 140.229 10.3335 138.895 8.77852 138.895C7.22349 138.895 5.96289 140.229 5.96289 141.876C5.96289 143.522 7.22349 144.857 8.77852 144.857Z" fill="#75D6FF"/>
<path d="M10.4344 115.209C14.3677 115.209 17.5563 111.872 17.5563 107.756C17.5563 103.64 14.3677 100.303 10.4344 100.303C6.50107 100.303 3.3125 103.64 3.3125 107.756C3.3125 111.872 6.50107 115.209 10.4344 115.209Z" fill="#75D6FF"/>
<path d="M21.2002 99.8062C28.518 99.8062 34.4502 93.6516 34.4502 86.0594C34.4502 78.4672 28.518 72.3125 21.2002 72.3125C13.8824 72.3125 7.9502 78.4672 7.9502 86.0594C7.9502 93.6516 13.8824 99.8062 21.2002 99.8062Z" fill="#75D6FF"/>
<path d="M30.9723 145.022C37.4668 145.022 42.7316 139.535 42.7316 132.766C42.7316 125.997 37.4668 120.51 30.9723 120.51C24.4777 120.51 19.2129 125.997 19.2129 132.766C19.2129 139.535 24.4777 145.022 30.9723 145.022Z" fill="#FCFCFA"/>
<path d="M30.9721 141.212C35.4542 141.212 39.0877 137.43 39.0877 132.765C39.0877 128.1 35.4542 124.318 30.9721 124.318C26.4899 124.318 22.8564 128.1 22.8564 132.765C22.8564 137.43 26.4899 141.212 30.9721 141.212Z" fill="#29251C"/>
<path d="M182.922 78.3962C189.029 86.6896 187.734 86.4944 191.799 88.6793C200.193 93.1902 184.348 96.3022 177.216 92.9401C170.083 89.5796 166.855 81.4326 170.007 74.7447C173.159 68.0567 178.246 72.0469 182.922 78.3962ZM221.768 79.7454L221.225 79.0656C221.225 79.0656 221.112 78.9239 220.902 78.6815C220.694 78.4311 220.37 78.1149 220.013 77.6583C219.92 77.548 219.827 77.4284 219.723 77.3137C219.624 77.1939 219.512 77.0824 219.415 76.9407C219.215 76.6621 218.988 76.3866 218.755 76.0909C218.533 75.76 218.304 75.434 218.068 75.1133C217.847 74.7576 217.609 74.3971 217.373 74.0257C216.933 73.2481 216.457 72.4454 216.072 71.5499C215.977 71.3246 215.853 71.1186 215.774 70.8824C215.687 70.6504 215.594 70.4206 215.496 70.193C215.444 70.0814 215.407 69.9602 215.37 69.8404C215.329 69.7223 215.288 69.6028 215.247 69.4833C215.165 69.2471 215.072 69.0124 215.012 68.7639C214.942 68.5198 214.875 68.2743 214.795 68.0321C214.734 67.7848 214.684 67.5316 214.62 67.2827C214.591 67.1568 214.551 67.0356 214.528 66.9082L214.464 66.524L214.391 66.1431C214.365 66.0156 214.332 65.8914 214.326 65.7589C214.301 65.4994 214.26 65.2428 214.224 64.9832C214.216 64.9232 214.199 64.8478 214.199 64.7974L214.194 64.6509C214.189 64.5533 214.181 64.4557 214.172 64.3583C214.162 64.2607 214.15 64.1646 214.137 64.067L214.131 64.0309L214.129 64.0133L214.128 63.9771L214.125 63.8277L214.115 63.5303L214.086 62.5765L214.087 62.5669L214.089 62.518L214.093 62.419L214.1 62.2206L214.11 61.824C214.117 61.6917 214.106 61.5582 214.12 61.4273L214.156 61.0338L214.188 60.6418C214.194 60.5095 214.199 60.3789 214.224 60.2497C214.26 59.9916 214.301 59.7352 214.326 59.4739C214.332 59.3433 214.365 59.2173 214.391 59.0913L214.465 58.7087L214.528 58.3262C214.551 58.1987 214.591 58.0773 214.621 57.9515C214.684 57.7028 214.734 57.4495 214.795 57.2006C214.876 56.9599 214.942 56.7143 215.013 56.4688C215.072 56.2201 215.165 55.987 215.247 55.7494C215.288 55.6299 215.329 55.5118 215.37 55.3937C215.408 55.274 215.444 55.153 215.496 55.0412C215.594 54.8135 215.687 54.5836 215.774 54.3517C215.853 54.1156 215.978 53.9095 216.072 53.6845C216.457 52.7887 216.933 51.9844 217.374 51.2086C217.61 50.8356 217.847 50.4765 218.068 50.1194C218.305 49.7995 218.534 49.4741 218.756 49.1434C218.988 48.8475 219.215 48.5721 219.415 48.2935C219.522 48.1455 219.599 48.0559 219.684 47.9457C219.767 47.8419 219.843 47.7315 219.919 47.6308L220.134 47.3349C220.15 47.3113 220.167 47.2877 220.183 47.264C220.211 47.2373 220.24 47.2105 220.267 47.184C220.322 47.132 220.375 47.0816 220.425 47.0327C220.632 46.8408 220.802 46.6707 220.942 46.5322C221.084 46.3907 221.224 46.2469 221.362 46.1008C222.258 45.1268 222.745 43.7619 222.561 42.3471C222.229 39.8081 219.903 38.02 217.364 38.3521C217.364 38.3521 217.155 38.3805 216.769 38.4451C216.533 38.4845 216.297 38.5281 216.062 38.5757C215.993 38.5883 215.921 38.6025 215.847 38.6167C215.81 38.6244 215.773 38.6322 215.733 38.6386C215.686 38.6543 215.637 38.6702 215.589 38.6875C215.39 38.7552 215.181 38.8275 214.959 38.9049C214.737 38.9849 214.499 39.0654 214.254 39.1613C214.013 39.2556 213.735 39.358 213.506 39.462C213.021 39.6698 212.507 39.9185 211.946 40.183C211.407 40.4725 210.84 40.8031 210.24 41.1604C209.664 41.5446 209.058 41.9617 208.444 42.4244C207.25 43.3845 205.986 44.5098 204.846 45.8904C204.597 46.1702 204.361 46.4672 204.129 46.7717C200.17 33.8905 192.556 26.3334 183.739 20.4969C167.962 10.0535 157.452 11.2182 149.955 17.0671C142.457 22.9161 143.219 37.307 143.219 37.307L202.438 49.2674L202.413 49.3092C202.166 49.7263 201.906 50.1449 201.697 50.5934C201.478 51.0375 201.253 51.4843 201.04 51.9424C200.844 52.4051 200.658 52.8788 200.47 53.3557C200.381 53.5967 200.283 53.836 200.203 54.0799C200.126 54.3254 200.049 54.5724 199.971 54.8197C199.899 55.07 199.825 55.3187 199.751 55.5689C199.679 55.8192 199.6 56.0694 199.549 56.326C199.431 56.8374 199.329 57.3538 199.222 57.8717C199.109 58.3879 199.066 58.9153 198.994 59.4411L198.899 60.2313C198.866 60.4957 198.865 60.7602 198.849 61.0261L198.816 61.8211L198.802 62.2194L198.794 62.4177L198.791 62.5184L198.789 62.5673V62.5924C198.791 62.7262 198.783 62.3295 198.794 62.8977L198.844 64.0908L198.857 64.3882L198.865 64.5362L198.866 64.5755L198.873 64.6306L198.884 64.7422L198.98 65.6348L199.087 66.5243L199.147 66.9665C199.169 67.113 199.197 67.2294 199.222 67.3631C199.329 67.881 199.431 68.3972 199.549 68.9071C199.6 69.1637 199.679 69.4139 199.751 69.6659C199.825 69.9161 199.899 70.165 199.971 70.4134C200.049 70.6621 200.126 70.9077 200.203 71.1549C200.283 71.3988 200.381 71.6381 200.47 71.8774C200.658 72.3558 200.844 72.8281 201.04 73.2922C201.253 73.7486 201.478 74.1973 201.697 74.6412C201.906 75.0899 202.166 75.5068 202.413 75.9256C202.665 76.3394 202.898 76.7582 203.175 77.1438C203.719 77.9198 204.25 78.6738 204.846 79.3444C205.986 80.7247 207.25 81.8501 208.444 82.8102C209.058 83.2731 209.664 83.6902 210.241 84.0741C210.84 84.4315 211.407 84.7619 211.947 85.0518C212.507 85.3147 213.022 85.5648 213.507 85.7709C213.99 85.9803 214.454 86.133 214.865 86.2747C215.071 86.3439 215.265 86.4085 215.449 86.4699C215.63 86.5345 215.812 86.5675 215.974 86.6116C216.302 86.6965 216.582 86.7596 216.809 86.8083C217.26 86.9073 217.501 86.95 217.501 86.95C218.715 87.1546 220.024 86.8651 221.062 86.0371C222.994 84.4944 223.31 81.6783 221.768 79.7454Z" fill="#00B1FF"/>
<path d="M208.958 59.5429C208.958 69.1553 188.654 91.627 163.605 91.627C145.723 91.627 130.259 84.3048 122.874 73.6679C122.353 72.9185 122.93 71.9004 123.84 71.9789C124.827 72.0657 126.028 72.1601 127.18 72.223C128.643 72.3049 129.302 70.4255 128.112 69.5725C125.839 67.9418 122.877 65.8768 120.935 64.7481C119.35 63.8244 118.33 62.1606 118.267 60.3268C118.258 60.0656 118.254 59.8042 118.254 59.5429C118.254 41.8231 138.558 27.459 163.605 27.459C188.654 27.4588 208.958 49.9307 208.958 59.5429Z" fill="#59CAFC"/>
<path d="M134.841 48.3496C136.753 48.3496 138.305 49.8984 138.305 51.8171V56.0749C138.305 57.9903 136.753 59.5424 134.841 59.5424C132.925 59.5424 131.373 57.9903 131.373 56.0749V51.8171C131.373 49.8984 132.925 48.3496 134.841 48.3496Z" fill="#2B3B47"/>
<path d="M164.112 78.2033C163.111 79.6089 161.881 78.5023 162.384 76.8497C163.547 73.0251 164.499 66.8943 164.499 59.9861C164.499 53.0763 163.547 46.9474 162.384 43.1225C161.881 41.4699 163.111 40.3635 164.112 41.7689C166.693 45.3906 168.554 52.1935 168.554 59.9863C168.554 67.7804 166.693 74.5818 164.112 78.2033ZM176.252 73.1095C178.11 70.4999 179.451 65.6001 179.451 59.9857C179.451 54.3713 178.11 49.4713 176.252 46.8617C175.529 45.8496 174.644 46.6477 175.007 47.8376C175.845 50.5937 176.53 55.0085 176.53 59.9857C176.53 64.9627 175.845 69.3791 175.007 72.1352C174.644 73.3254 175.529 74.1233 176.252 73.1095Z" fill="#00B1FF"/>
</svg>
