<svg width="85" height="68" viewBox="0 0 85 68" fill="none" xmlns="http://www.w3.org/2000/svg">
<path d="M71.6849 44.5871C71.0084 44.791 71.0959 45.2459 71.0959 45.2459C71.0959 45.2459 69.5041 43.8422 68.565 44.0147C67.6259 44.1872 68.565 45.5282 68.565 45.5282C68.565 45.5282 66.9732 45.0498 66.2649 45.4262C65.5565 45.8026 66.1773 46.6652 67.3632 47.5906C68.5491 48.5159 71.0323 50.4842 71.0323 50.4842L79.4846 52.6407C74.9321 46.2026 72.3693 44.3754 71.6849 44.5871Z" fill="url(#paint0_linear_7923_3438)"/>
<path d="M65.031 47.2373C57.3348 44.9318 54.3184 46.5629 54.3184 46.5629C54.1572 46.8644 54.0803 47.2027 54.0955 47.5431C54.1252 47.6517 54.1783 47.7527 54.251 47.8393C54.3238 47.9258 54.4146 47.996 54.5174 48.045C54.0819 48.0861 53.6782 48.2877 53.3872 48.6096C53.1929 49.0205 53.1291 49.4797 53.2041 49.927C53.2041 49.927 52.9574 49.927 52.7266 50.3269C52.4958 50.7269 51.883 50.8523 52.7266 51.4875C53.5546 52.2969 54.5568 52.9124 55.659 53.2884C56.7611 53.6644 57.935 53.7913 59.0937 53.6597C62.9856 53.3068 65.031 47.2373 65.031 47.2373Z" fill="url(#paint1_linear_7923_3438)"/>
<path d="M78.9911 59.3533C79.588 64.6936 75.9508 66.6619 74.8525 66.8893C74.3354 67.0557 73.7779 67.0557 73.2607 66.8893C73.2607 66.8893 71.6212 67.0304 70.9924 66.9912C70.8241 66.9821 70.6614 66.9285 70.5214 66.836C70.3814 66.7436 70.2691 66.6157 70.1965 66.4658C69.717 66.6438 69.1998 66.7004 68.6923 66.6305C67.8964 66.4972 66.424 65.117 69.8941 61.698C73.3642 58.279 78.824 57.5418 78.9911 59.3533Z" fill="url(#paint2_linear_7923_3438)"/>
<path d="M56.953 57.8791C54.3505 59.7768 54.5654 61.6196 54.5654 61.8C54.5654 61.9803 55.2817 62.0431 55.2817 62.0431C55.3438 62.3781 55.4536 62.7029 55.608 63.0076C55.8149 63.3135 56.9451 63.2272 56.9451 63.2272C56.9451 63.2272 57.2555 64.325 57.9956 64.3643C58.4406 64.3916 58.8867 64.333 59.3088 64.1917C59.466 64.3884 59.6687 64.5451 59.9 64.6488C60.1312 64.7524 60.3842 64.8001 60.638 64.7877C61.5135 64.7407 63.2485 62.1293 63.0256 59.7611C62.8028 57.3929 56.953 57.8791 56.953 57.8791Z" fill="url(#paint3_linear_7923_3438)"/>
<path d="M47.5376 51.457C43.0726 49.4887 43.8924 43.7799 39.4354 45.56C34.9784 47.3401 38.2814 52.7901 38.5918 54.7192C38.9022 56.6483 37 57.5187 37 60.7652C37 64.0117 40.677 64.6234 43.9322 62.9531C47.1874 61.2828 45.3648 58.6166 50.2993 57.4638C55.2338 56.3111 51.9309 53.3783 47.5376 51.457Z" fill="url(#paint4_linear_7923_3438)"/>
<path d="M84.9842 55.189C84.7614 54.0519 78.2669 48.6254 69.3132 47.3079C66.8491 46.8742 64.3205 46.9493 61.8874 47.5284C59.4543 48.1074 57.1697 49.1779 55.1782 50.6721C54.2343 51.3965 53.1187 51.8723 51.9366 52.0548C50.7545 52.2372 49.5447 52.1203 48.4211 51.715C47.9836 51.5205 47.5241 51.3784 47.0522 51.2916C45.5798 51.1818 46.6065 57.0553 47.0522 58.2865C47.2989 58.9844 48.8828 58.4511 50.8566 58.3649C52.6009 58.2814 54.3109 58.8627 55.6319 59.9881C57.6296 61.6584 60.6699 63.9953 67.7373 63.8541C78.3306 63.6267 85.2071 56.3025 84.9842 55.189Z" fill="url(#paint5_linear_7923_3438)"/>
<path opacity="0.1" d="M46.4473 52.5463C46.9194 52.632 47.3792 52.7742 47.8162 52.9697C48.9413 53.3742 50.1521 53.4907 51.3353 53.3083C52.5185 53.1259 53.6354 52.6505 54.5813 51.9268C56.5718 50.4337 58.855 49.3638 61.2867 48.7848C63.7183 48.2057 66.2455 48.1301 68.7083 48.5627C77.5427 49.8644 83.9814 55.1576 84.3634 56.4045C84.8091 55.832 85.032 55.3929 84.9842 55.1811C84.7614 54.0441 78.2669 48.6176 69.3132 47.3001C66.8491 46.8664 64.3205 46.9415 61.8873 47.5206C59.4542 48.0996 57.1696 49.1701 55.1782 50.6643C54.2342 51.3887 53.1187 51.8645 51.9366 52.0469C50.7545 52.2294 49.5447 52.1125 48.4211 51.7072C47.9836 51.5127 47.524 51.3705 47.0522 51.2838C46.5985 51.2838 46.3836 51.7856 46.312 52.5698L46.4473 52.5463Z" fill="white"/>
<path opacity="0.2" d="M68.0873 63.1487C61.0198 63.2899 57.9795 60.953 55.9818 59.2749C54.6579 58.1544 52.95 57.5738 51.2065 57.6516C49.2327 57.7457 47.6489 58.279 47.3942 57.5811C47.052 56.6322 46.3675 52.9309 46.7416 51.3076C45.699 51.9506 46.6063 57.0949 47.0201 58.2319C47.2669 58.9298 48.8507 58.3966 50.8245 58.3103C52.5688 58.2269 54.2788 58.8082 55.5998 59.9336C57.5975 61.6039 60.6378 63.9408 67.7053 63.7996C77.6777 63.6114 84.3473 57.1341 84.9362 55.4089C83.3206 57.7536 77.0331 62.9762 68.0873 63.1487Z" fill="url(#paint6_linear_7923_3438)"/>
<g opacity="0.8">
<path opacity="0.2" d="M45.0463 51.4879C44.3025 49.9379 43.1681 48.6016 41.7513 47.6062C39.3637 45.8496 38.9737 46.5083 41.0191 48.1316C43.0645 49.7548 45.0463 51.4879 45.0463 51.4879Z" fill="url(#paint7_linear_7923_3438)"/>
<path opacity="0.2" d="M44.704 52.8369C43.6734 51.4619 42.3037 50.3687 40.7246 49.6609C38.0424 48.3906 37.7718 49.112 40.1038 50.3118C42.4357 51.5116 44.704 52.8369 44.704 52.8369Z" fill="url(#paint8_linear_7923_3438)"/>
<path opacity="0.2" d="M46.2639 54.4049C44.8946 53.3752 43.286 52.6986 41.5841 52.4366C38.6552 51.9347 38.5995 52.6954 41.1702 53.2208C43.7409 53.7462 46.2639 54.4049 46.2639 54.4049Z" fill="url(#paint9_linear_7923_3438)"/>
<path opacity="0.2" d="M45.4603 55.4397C44.1777 54.8195 42.7569 54.5282 41.3297 54.5928C38.8783 54.6555 38.942 55.2829 41.1227 55.2985C43.3035 55.3142 45.4603 55.4397 45.4603 55.4397Z" fill="url(#paint10_linear_7923_3438)"/>
<path opacity="0.2" d="M45.2611 56.3264C43.524 56.2775 41.8023 56.6604 40.255 57.44C37.5808 58.726 37.9867 59.3769 40.3903 58.3261C42.7939 57.2753 45.2611 56.3264 45.2611 56.3264Z" fill="url(#paint11_linear_7923_3438)"/>
<path opacity="0.2" d="M45.4281 57.6357C43.7083 57.8338 42.0663 58.4539 40.6528 59.4394C38.1935 61.0861 38.6949 61.6743 40.9154 60.2941C43.136 58.914 45.4281 57.6357 45.4281 57.6357Z" fill="url(#paint12_linear_7923_3438)"/>
<path opacity="0.2" d="M45.3408 57.9805C43.7472 58.6714 42.3585 59.751 41.3056 61.1172C39.4512 63.407 40.1118 63.8226 41.815 61.8543C43.5182 59.886 45.3408 57.9805 45.3408 57.9805Z" fill="url(#paint13_linear_7923_3438)"/>
</g>
<path style="mix-blend-mode:multiply" opacity="0.4" d="M84.9839 55.1895C83.2011 56.8127 79.6753 59.0006 73.0455 60.1847C61.5848 62.2314 57.9953 56.2638 55.536 56.0756C53.7055 55.958 49.5748 56.3892 46.5425 55.7384C46.6574 56.6066 46.8437 57.4642 47.0996 58.3026C47.3463 59.0006 48.9301 58.4673 50.9039 58.3811C52.6483 58.2976 54.3583 58.8789 55.6793 60.0043C57.6769 61.6746 60.7172 64.0115 67.7847 63.8703C78.3302 63.6272 85.2067 56.303 84.9839 55.1895Z" fill="url(#paint14_linear_7923_3438)"/>
<path d="M80.8374 53.033C80.839 53.2846 80.7647 53.531 80.624 53.7409C80.4833 53.9509 80.2825 54.1149 80.047 54.2123C79.8116 54.3096 79.5521 54.3359 79.3015 54.2878C79.0508 54.2397 78.8204 54.1193 78.6393 53.9419C78.4581 53.7646 78.3346 53.5383 78.2842 53.2916C78.2338 53.045 78.2588 52.7891 78.3562 52.5566C78.4535 52.324 78.6188 52.1251 78.831 51.9852C79.0432 51.8452 79.2928 51.7705 79.5481 51.7705C79.8887 51.7705 80.2154 51.9033 80.457 52.1398C80.6986 52.3764 80.8353 52.6975 80.8374 53.033Z" fill="url(#paint15_linear_7923_3438)"/>
<path d="M80.583 53.0328C80.5828 53.2249 80.5253 53.4128 80.4177 53.5731C80.31 53.7333 80.1569 53.8588 79.9775 53.934C79.798 54.0092 79.6 54.0308 79.4082 53.996C79.2164 53.9613 79.0392 53.8718 78.8986 53.7386C78.758 53.6054 78.6602 53.4344 78.6175 53.2469C78.5747 53.0594 78.5888 52.8637 78.6581 52.684C78.7273 52.5044 78.8486 52.3487 79.0069 52.2365C79.1652 52.1242 79.3534 52.0602 79.5483 52.0525C79.6823 52.0473 79.8159 52.0687 79.9413 52.1156C80.0666 52.1625 80.181 52.2339 80.2777 52.3254C80.3743 52.417 80.4512 52.5268 80.5036 52.6484C80.5561 52.7699 80.5831 52.9007 80.583 53.0328Z" fill="#000C42"/>
<path d="M80.1449 52.6562C80.1449 52.7249 80.1172 52.7907 80.068 52.8392C80.0187 52.8878 79.9519 52.915 79.8823 52.915C79.8126 52.915 79.7458 52.8878 79.6966 52.8392C79.6473 52.7907 79.6196 52.7249 79.6196 52.6562C79.6196 52.5876 79.6473 52.5218 79.6966 52.4733C79.7458 52.4247 79.8126 52.3975 79.8823 52.3975C79.9519 52.3975 80.0187 52.4247 80.068 52.4733C80.1172 52.5218 80.1449 52.5876 80.1449 52.6562Z" fill="white"/>
<path d="M35.7114 7.41857C31.4339 3.62921 25.4913 -0.226452 23.2712 0.0103823C21.0511 0.247217 23.8645 3.6008 24.3621 5.69442C24.8597 7.78804 23.1946 10.488 24.7162 11.0658C26.2377 11.6437 40.8693 11.9658 35.7114 7.41857Z" fill="url(#paint16_linear_7923_3438)"/>
<path d="M14.9454 24.7646C12.5913 27.0856 15.51 29.7761 15.3282 32.5044C15.1463 35.2327 25.3186 34.0865 28.3425 30.2213C31.3664 26.3562 14.9454 24.7646 14.9454 24.7646Z" fill="url(#paint17_linear_7923_3438)"/>
<path d="M42.5914 27.9951C42.9741 28.9425 39.6344 32.7887 35.9693 33.1297C32.3043 33.4707 32.266 30.3729 32.6488 29.8519C33.0315 29.3309 42.5914 27.9951 42.5914 27.9951Z" fill="url(#paint18_linear_7923_3438)"/>
<path opacity="0.2" d="M23.1755 0.0478516C21.2616 0.426787 23.9219 3.64774 24.4099 5.67505C24.8214 7.38973 23.7592 9.54966 24.2377 10.5728C24.7072 10.504 25.1533 10.3254 25.5391 10.0518C26.9554 8.81075 27.2712 6.9729 25.5391 3.78037C24.4482 1.80043 23.1755 0.85309 23.1755 0.0478516Z" fill="white"/>
<path d="M49.4816 17.9053C46.1993 15.9443 37.5198 4.07418 25.6347 7.32355C14.7351 10.3266 14.6682 17.479 11.5964 19.1274C6.62988 19.98 3.42414 14.0212 1.1562 13.8697C-1.11175 13.7181 0.534191 18.4358 1.24232 21.4484C1.95046 24.4609 1.76864 27.1987 0.610742 29.1502C-0.719401 31.3954 6.35237 29.7565 8.71601 26.583C9.03886 26.1857 9.44759 25.8651 9.91212 25.6448C10.3767 25.4246 10.8852 25.3102 11.4002 25.3102C11.9153 25.3102 12.4238 25.4246 12.8883 25.6448C13.3529 25.8651 13.7616 26.1857 14.0844 26.583C16.0844 28.9797 19.1084 32.4659 27.0892 32.608C38.8213 32.8165 44.7256 28.6103 48.2854 27.3598C49.2528 27.059 50.1125 26.4893 50.7622 25.7187C51.4119 24.9481 51.8244 24.0089 51.9504 23.0128C52.0764 22.0168 51.9107 21.0059 51.473 20.1004C51.0354 19.195 50.3441 18.433 49.4816 17.9053Z" fill="url(#paint19_linear_7923_3438)"/>
<g style="mix-blend-mode:multiply" opacity="0.2">
<path d="M1.15632 15.3478C3.42426 15.4994 6.63001 21.4582 11.5965 20.6056C14.6683 18.9572 14.7353 11.7953 25.6348 8.81117C37.52 5.56179 46.1994 17.432 49.4817 19.393C50.1517 19.8137 50.7196 20.3758 51.1447 21.0391C51.5699 21.7023 51.8418 22.4503 51.941 23.2297C52.0884 22.2037 51.935 21.1574 51.499 20.2152C51.063 19.273 50.3628 18.4747 49.4817 17.9151C46.1994 15.9541 37.52 4.08395 25.6348 7.33332C14.7353 10.3269 14.6683 17.4793 11.5965 19.1277C6.63001 19.9803 3.42426 14.0215 1.15632 13.87C0.0749806 13.7942 -0.106837 14.8173 0.0654118 16.2857C0.180244 15.6699 0.505603 15.3004 1.15632 15.3478Z" fill="url(#paint20_linear_7923_3438)"/>
<path d="M1.62522 25.6738C1.56171 26.912 1.20787 28.1186 0.591724 29.1979C0.285504 29.7095 0.438613 30.0126 0.859666 30.1453C1.48317 28.74 1.74615 27.204 1.62522 25.6738Z" fill="url(#paint21_linear_7923_3438)"/>
</g>
<path opacity="0.5" d="M1.24232 21.4964C1.94089 24.5468 1.76864 27.2468 0.610742 29.1983C-0.0495447 30.3161 1.36672 30.4677 3.24232 29.9467C4.44521 29.1483 5.53327 28.1923 6.47678 27.1047C8.39065 24.7268 7.13706 19.8386 5.0318 18.247C3.53825 17.2923 2.45957 15.8189 2.00788 14.1166C1.74759 13.9631 1.45725 13.8662 1.1562 13.8324C-1.11175 13.7093 0.534191 18.4365 1.24232 21.4964Z" fill="url(#paint22_linear_7923_3438)"/>
<path opacity="0.3" d="M42.6967 24.1388C42.5532 24.0914 37.8451 24.3946 32.6489 24.3946C27.4527 24.3946 26.8211 28.6955 34.5628 28.4966C42.3044 28.2976 45.6728 25.2851 42.6967 24.1388Z" fill="#4D0000"/>
<path d="M43.4243 23.3714C43.2807 23.3145 38.5726 23.6177 33.3764 23.6177C28.1803 23.6177 27.5487 27.9186 35.2903 27.7196C43.0319 27.5207 46.3908 24.5366 43.4243 23.3714Z" fill="url(#paint23_linear_7923_3438)"/>
<path opacity="0.2" d="M35.8835 27.2563C30.7256 27.3794 29.2997 25.5227 30.4576 24.2627C28.3715 25.4469 29.4337 27.8721 35.2902 27.7205C39.8069 27.6068 42.8117 26.5363 43.96 25.4374C42.5246 26.3563 39.7495 27.1615 35.8835 27.2563Z" fill="#FFD4D4"/>
<path opacity="0.5" d="M1.24242 21.4965C1.94098 24.5469 1.76873 27.2468 0.610834 29.1983C0.0749485 30.1457 0.926628 30.373 2.27591 30.1457C3.23285 28.5731 2.47686 25.8542 2.97447 21.7996C3.53906 17.3282 0.878783 16.3903 0.333328 14.1641C-0.575763 15.2535 0.649115 18.9481 1.24242 21.4965Z" fill="url(#paint24_linear_7923_3438)"/>
<path opacity="0.2" d="M51.0699 25.3987C51.408 24.9324 51.6577 24.4092 51.8068 23.8545C50.6786 24.463 49.4169 24.7882 48.1322 24.8018C47.2326 24.8397 48.7255 25.9481 51.0699 25.3987Z" fill="#4D0000"/>
<path d="M47.4143 20.0941C47.4162 20.4823 47.3017 20.8624 47.0852 21.1861C46.8687 21.5099 46.56 21.7627 46.1982 21.9126C45.8364 22.0624 45.4378 22.1026 45.0529 22.028C44.668 21.9534 44.3142 21.7674 44.0362 21.4936C43.7582 21.2197 43.5686 20.8703 43.4914 20.4896C43.4142 20.109 43.4529 19.7142 43.6025 19.3553C43.7521 18.9965 44.006 18.6896 44.332 18.4737C44.6579 18.2578 45.0413 18.1426 45.4335 18.1426C45.9572 18.1426 46.4596 18.3479 46.8308 18.7136C47.202 19.0793 47.4118 19.5757 47.4143 20.0941Z" fill="url(#paint25_linear_7923_3438)"/>
<path d="M45.4336 21.4863C46.2105 21.4863 46.8403 20.8629 46.8403 20.0938C46.8403 19.3247 46.2105 18.7012 45.4336 18.7012C44.6567 18.7012 44.0269 19.3247 44.0269 20.0938C44.0269 20.8629 44.6567 21.4863 45.4336 21.4863Z" fill="url(#paint26_linear_7923_3438)"/>
<path d="M46.2951 19.3357C46.297 19.4095 46.2765 19.4822 46.2362 19.5444C46.196 19.6066 46.1378 19.6554 46.0692 19.6846C46.0006 19.7137 45.9248 19.7218 45.8515 19.7079C45.7783 19.6939 45.7109 19.6585 45.6581 19.6063C45.6054 19.5541 45.5696 19.4874 45.5555 19.4148C45.5415 19.3423 45.5496 19.2672 45.5791 19.1993C45.6085 19.1315 45.6578 19.0739 45.7206 19.034C45.7834 18.9941 45.8569 18.9738 45.9315 18.9757C46.0279 18.9757 46.1204 19.0136 46.1886 19.0811C46.2568 19.1487 46.2951 19.2402 46.2951 19.3357Z" fill="url(#paint27_linear_7923_3438)"/>
<path style="mix-blend-mode:multiply" opacity="0.2" d="M51.9694 23.002C45.0029 27.9281 35.3761 30.8175 23.6823 28.146C11.3665 25.304 13.0029 21.6094 9.49092 23.8546C6.45743 25.7966 7.16556 26.1661 1.6536 24.7072C1.71755 26.2716 1.35037 27.8239 0.591397 29.1975C-0.738747 31.4427 6.33302 29.8038 8.69666 26.6303C9.01951 26.233 9.42824 25.9124 9.89277 25.6921C10.3573 25.4719 10.8658 25.3576 11.3809 25.3576C11.8959 25.3576 12.4044 25.4719 12.869 25.6921C13.3335 25.9124 13.7422 26.233 14.0651 26.6303C16.0651 29.027 19.089 32.5132 27.0699 32.6553C38.8019 32.8638 44.7062 28.6576 48.266 27.4071C49.2564 27.1216 50.138 26.5497 50.7978 25.7649C51.4577 24.98 51.8656 24.0179 51.9694 23.002Z" fill="url(#paint28_linear_7923_3438)"/>
<path opacity="0.2" d="M48.2851 26.4313C35.5961 34.8342 19.5195 31.9638 16.4956 27.2366C13.4717 22.5094 8.5626 24.4893 5.38556 27.1513C4.81077 27.7168 4.10837 28.1389 3.33633 28.3826C2.56429 28.6264 1.74476 28.685 0.945374 28.5534C0.840111 28.7807 0.734842 28.9986 0.61044 29.2165C-0.719703 31.4617 6.35207 29.8228 8.7157 26.6492C9.03855 26.2519 9.44729 25.9314 9.91182 25.7111C10.3763 25.4908 10.8849 25.3765 11.3999 25.3765C11.915 25.3765 12.4235 25.4908 12.888 25.7111C13.3525 25.9314 13.7613 26.2519 14.0841 26.6492C16.0841 29.046 19.1081 32.5322 27.0889 32.6743C38.821 32.8827 44.7253 28.6765 48.2851 27.426C48.9746 27.2077 49.6127 26.8546 50.1618 26.3876C50.7108 25.9205 51.1595 25.3491 51.4813 24.7072C50.3673 25.1889 49.2979 25.7658 48.2851 26.4313Z" fill="white"/>
<defs>
<linearGradient id="paint0_linear_7923_3438" x1="75.8633" y1="45.6379" x2="69.2348" y2="53.3027" gradientUnits="userSpaceOnUse">
<stop stop-color="#FFC957"/>
<stop offset="1" stop-color="#B142FF"/>
</linearGradient>
<linearGradient id="paint1_linear_7923_3438" x1="58.3615" y1="45.7709" x2="60.0463" y2="63.5843" gradientUnits="userSpaceOnUse">
<stop stop-color="#F7F0FF"/>
<stop offset="1" stop-color="#B142FF"/>
</linearGradient>
<linearGradient id="paint2_linear_7923_3438" x1="74.4386" y1="67.2814" x2="73.0074" y2="60.56" gradientUnits="userSpaceOnUse">
<stop stop-color="#FFC957"/>
<stop offset="1" stop-color="#B142FF"/>
</linearGradient>
<linearGradient id="paint3_linear_7923_3438" x1="57.1599" y1="63.5722" x2="61.6163" y2="57.3067" gradientUnits="userSpaceOnUse">
<stop stop-color="#F7F0FF"/>
<stop offset="1" stop-color="#B142FF"/>
</linearGradient>
<linearGradient id="paint4_linear_7923_3438" x1="37.4139" y1="54.186" x2="76.3979" y2="58.6109" gradientUnits="userSpaceOnUse">
<stop stop-color="#F7F0FF"/>
<stop offset="1" stop-color="#B142FF"/>
</linearGradient>
<linearGradient id="paint5_linear_7923_3438" x1="75.4575" y1="40.2817" x2="61.8393" y2="59.5129" gradientUnits="userSpaceOnUse">
<stop stop-color="#FFC957"/>
<stop offset="1" stop-color="#B142FF"/>
</linearGradient>
<linearGradient id="paint6_linear_7923_3438" x1="63.296" y1="60.6237" x2="69.4027" y2="42.2817" gradientUnits="userSpaceOnUse">
<stop stop-color="#FFC957"/>
<stop offset="1" stop-color="#B142FF"/>
</linearGradient>
<linearGradient id="paint7_linear_7923_3438" x1="41.7195" y1="50.0999" x2="43.0437" y2="47.9336" gradientUnits="userSpaceOnUse">
<stop stop-color="#F7F0FF"/>
<stop offset="1" stop-color="#B142FF"/>
</linearGradient>
<linearGradient id="paint8_linear_7923_3438" x1="40.7166" y1="51.9743" x2="42.3986" y2="49.9813" gradientUnits="userSpaceOnUse">
<stop stop-color="#F7F0FF"/>
<stop offset="1" stop-color="#B142FF"/>
</linearGradient>
<linearGradient id="paint9_linear_7923_3438" x1="42.1735" y1="54.6624" x2="43.2626" y2="52.2975" gradientUnits="userSpaceOnUse">
<stop stop-color="#F7F0FF"/>
<stop offset="1" stop-color="#B142FF"/>
</linearGradient>
<linearGradient id="paint10_linear_7923_3438" x1="41.5337" y1="56.1346" x2="42.0297" y2="54.0706" gradientUnits="userSpaceOnUse">
<stop stop-color="#F7F0FF"/>
<stop offset="1" stop-color="#B142FF"/>
</linearGradient>
<linearGradient id="paint11_linear_7923_3438" x1="41.497" y1="58.8507" x2="41.0077" y2="56.3077" gradientUnits="userSpaceOnUse">
<stop stop-color="#F7F0FF"/>
<stop offset="1" stop-color="#B142FF"/>
</linearGradient>
<linearGradient id="paint12_linear_7923_3438" x1="41.845" y1="60.2213" x2="41.0051" y2="57.7795" gradientUnits="userSpaceOnUse">
<stop stop-color="#F7F0FF"/>
<stop offset="1" stop-color="#B142FF"/>
</linearGradient>
<linearGradient id="paint13_linear_7923_3438" x1="42.6461" y1="61.4511" x2="41.1086" y2="59.3515" gradientUnits="userSpaceOnUse">
<stop stop-color="#F7F0FF"/>
<stop offset="1" stop-color="#B142FF"/>
</linearGradient>
<linearGradient id="paint14_linear_7923_3438" x1="65.5801" y1="53.7466" x2="67.775" y2="76.9253" gradientUnits="userSpaceOnUse">
<stop stop-color="#F7F0FF"/>
<stop offset="1" stop-color="#B142FF"/>
</linearGradient>
<linearGradient id="paint15_linear_7923_3438" x1="77.5027" y1="54.6485" x2="81.7429" y2="51.2152" gradientUnits="userSpaceOnUse">
<stop stop-color="#FFC957"/>
<stop offset="1" stop-color="#B142FF"/>
</linearGradient>
<linearGradient id="paint16_linear_7923_3438" x1="17.8836" y1="12.1458" x2="45.4071" y2="-4.74522" gradientUnits="userSpaceOnUse">
<stop stop-color="#D57DE3"/>
<stop offset="1" stop-color="#FF6B6B"/>
</linearGradient>
<linearGradient id="paint17_linear_7923_3438" x1="18.4861" y1="37.1653" x2="21.3609" y2="27.8649" gradientUnits="userSpaceOnUse">
<stop stop-color="#D57DE3"/>
<stop offset="1" stop-color="#FF6B6B"/>
</linearGradient>
<linearGradient id="paint18_linear_7923_3438" x1="32.4957" y1="30.5814" x2="42.6201" y2="30.5814" gradientUnits="userSpaceOnUse">
<stop stop-color="#D57DE3"/>
<stop offset="1" stop-color="#FF6B6B"/>
</linearGradient>
<linearGradient id="paint19_linear_7923_3438" x1="25.9983" y1="36.9942" x2="25.9983" y2="1.88583" gradientUnits="userSpaceOnUse">
<stop stop-color="#D57DE3"/>
<stop offset="1" stop-color="#FF6B6B"/>
</linearGradient>
<linearGradient id="paint20_linear_7923_3438" x1="25.9984" y1="26.0054" x2="25.9984" y2="3.66712" gradientUnits="userSpaceOnUse">
<stop stop-color="#D57DE3"/>
<stop offset="1" stop-color="#FF6B6B"/>
</linearGradient>
<linearGradient id="paint21_linear_7923_3438" x1="1.05105" y1="30.9031" x2="1.05105" y2="24.8307" gradientUnits="userSpaceOnUse">
<stop stop-color="#D57DE3"/>
<stop offset="1" stop-color="#FF6B6B"/>
</linearGradient>
<linearGradient id="paint22_linear_7923_3438" x1="-3.1883" y1="27.0099" x2="10.3245" y2="13.8005" gradientUnits="userSpaceOnUse">
<stop stop-color="#D57DE3"/>
<stop offset="1" stop-color="#FFC5C5"/>
</linearGradient>
<linearGradient id="paint23_linear_7923_3438" x1="35.6635" y1="28.3733" x2="39.3118" y2="18.8657" gradientUnits="userSpaceOnUse">
<stop stop-color="#D57DE3"/>
<stop offset="1" stop-color="#FF6B6B"/>
</linearGradient>
<linearGradient id="paint24_linear_7923_3438" x1="-3.27432" y1="23.5806" x2="8.02593" y2="20.0298" gradientUnits="userSpaceOnUse">
<stop stop-color="#D57DE3"/>
<stop offset="1" stop-color="#FFC5C5"/>
</linearGradient>
<linearGradient id="paint25_linear_7923_3438" x1="43.0603" y1="22.0551" x2="49.3427" y2="16.7635" gradientUnits="userSpaceOnUse">
<stop stop-color="#BE55CF"/>
<stop offset="1" stop-color="#FF6B6B"/>
</linearGradient>
<linearGradient id="paint26_linear_7923_3438" x1="44.4288" y1="21.1074" x2="48.8709" y2="16.5533" gradientUnits="userSpaceOnUse">
<stop stop-color="#0C050D"/>
<stop offset="1" stop-color="#FF6B6B"/>
</linearGradient>
<linearGradient id="paint27_linear_7923_3438" x1="45.6635" y1="19.6009" x2="46.8381" y2="18.4049" gradientUnits="userSpaceOnUse">
<stop stop-color="#FCEBFF"/>
<stop offset="1" stop-color="#FF6B6B"/>
</linearGradient>
<linearGradient id="paint28_linear_7923_3438" x1="10.8402" y1="40.6698" x2="76.0999" y2="-26.1218" gradientUnits="userSpaceOnUse">
<stop stop-color="#D57DE3"/>
<stop offset="1" stop-color="#FF6B6B"/>
</linearGradient>
</defs>
</svg>
