<svg width="345" height="245" viewBox="0 0 345 245" fill="none" xmlns="http://www.w3.org/2000/svg">
<g clip-path="url(#clip0_7923_3392)">
<path d="M45.9773 223.436C46.0507 223.427 46.121 223.402 46.1836 223.362C46.431 223.212 45.967 222.395 45.8165 222.148C43.2262 217.935 43.5211 212.991 43.7686 209.173C43.816 208.445 43.8985 207.69 43.9748 206.959C44.2099 204.822 44.4512 202.612 43.9088 200.456C43.4531 198.648 42.6488 197.216 41.8466 195.93C41.8117 195.868 41.7647 195.814 41.7083 195.771C41.6518 195.727 41.5872 195.696 41.5183 195.678C41.4493 195.661 41.3775 195.657 41.3072 195.668C41.2369 195.679 41.1696 195.704 41.1093 195.742C41.0489 195.779 40.9969 195.829 40.9563 195.887C40.9156 195.945 40.8873 196.011 40.8729 196.081C40.8586 196.15 40.8585 196.222 40.8727 196.292C40.8869 196.361 40.9151 196.427 40.9556 196.485C41.828 197.878 42.492 199.129 42.888 200.703C43.3871 202.676 43.154 204.793 42.9293 206.838C42.8488 207.581 42.7643 208.346 42.723 209.101C42.4673 213.071 42.4384 217.855 45.171 222.303C45.2823 222.484 45.7897 223.457 45.9794 223.432L45.9773 223.436Z" fill="#70C7E8"/>
<path d="M13.7062 196.214C15.2862 196.424 16.8907 196.361 18.4494 196.028C21.4068 195.335 24.2919 194.078 26.2036 193.193C28.7176 192.033 31.6295 190.83 34.4095 191.301C34.5466 191.322 34.6867 191.289 34.7997 191.209C34.9127 191.128 34.9895 191.007 35.0138 190.871C35.0256 190.803 35.0238 190.734 35.0086 190.667C34.9934 190.6 34.9651 190.536 34.9252 190.48C34.8853 190.424 34.8347 190.376 34.7763 190.34C34.7178 190.304 34.6528 190.279 34.5848 190.268C31.6543 189.78 28.6042 190.926 25.7623 192.245C23.8918 193.109 21.0747 194.337 18.2102 195.008C14.4589 195.884 9.86204 195.043 6.77479 193.22C6.52525 193.072 5.71065 192.603 5.56216 192.858C5.41368 193.113 6.32521 193.671 6.57475 193.819C8.74434 195.133 11.1793 195.951 13.7041 196.214H13.7062Z" fill="#70C7E8"/>
<path d="M54.8139 203.959C56.3339 199.46 78.6066 193.518 72.7848 170.598C66.4391 145.62 39.6169 147.01 29.8025 155.725C15.088 168.791 23.5125 180.518 22.5679 183.339C20.6727 188.998 26.1584 183.544 29.357 184.832C32.7454 186.188 29.3467 190.198 36.8452 189.222C43.0321 188.416 40.7635 193.44 44.4241 196.238C46.6473 197.933 51.1905 195.769 51.0606 200.007C50.9368 204.082 54.3231 205.412 54.8139 203.959Z" fill="#B5E3F0"/>
<path d="M30.1284 191.515C25.5006 193.877 21.1698 197.625 19.7055 204.381C18.2413 211.138 16.3358 220.684 0.00034378 221.869C2.03789 222.504 16.4801 222.529 20.3098 210.514C23.43 200.719 22.2566 200.826 30.4398 194.144C40.6481 185.818 30.1284 191.515 30.1284 191.515Z" fill="#80D3ED"/>
<path d="M22.042 201.503C21.8606 201.992 21.8585 202.445 22.042 202.511C22.2256 202.577 22.5184 202.237 22.702 201.75C22.8855 201.262 22.8835 200.809 22.702 200.739C22.5205 200.67 22.2235 201.015 22.042 201.503Z" fill="#76C8E8"/>
<path d="M21.5037 200.201C21.3862 200.446 21.3635 200.678 21.4542 200.721C21.545 200.765 21.7141 200.602 21.8316 200.361C21.9492 200.121 21.9698 199.884 21.8791 199.841C21.7883 199.798 21.6213 199.96 21.5037 200.201Z" fill="#76C8E8"/>
<path d="M19.045 208.824C18.979 209.04 18.9914 209.236 19.0718 209.263C19.1523 209.289 19.2781 209.131 19.3399 208.911C19.4018 208.691 19.3915 208.499 19.3111 208.473C19.2306 208.446 19.111 208.606 19.045 208.824Z" fill="#76C8E8"/>
<path d="M20.7568 203.725C20.6764 204.106 20.7238 204.443 20.8703 204.472C21.0167 204.501 21.192 204.217 21.2724 203.834C21.3528 203.451 21.3054 203.112 21.1652 203.083C21.0249 203.054 20.8373 203.34 20.7568 203.725Z" fill="#76C8E8"/>
<path d="M23.908 196.621C23.6419 196.911 23.5141 197.224 23.6213 197.322C23.7286 197.421 24.0338 197.267 24.2978 196.977C24.5617 196.687 24.6917 196.372 24.5844 196.275C24.4772 196.178 24.1616 196.331 23.908 196.621Z" fill="#76C8E8"/>
<path d="M20.4495 207.446C20.4041 207.714 20.4495 207.946 20.5485 207.962C20.6475 207.979 20.7671 207.775 20.8124 207.506C20.8578 207.236 20.8124 207.01 20.7134 206.991C20.6145 206.973 20.4907 207.179 20.4495 207.446Z" fill="#76C8E8"/>
<path d="M19.5749 205.848C19.5151 206.295 19.5976 206.671 19.7667 206.7C19.9358 206.729 20.1173 206.381 20.1792 205.931C20.2411 205.48 20.1544 205.108 19.9895 205.079C19.8245 205.05 19.6368 205.4 19.5749 205.848Z" fill="#76C8E8"/>
<path d="M23.7083 199.951C23.5928 200.118 23.5515 200.287 23.6134 200.33C23.6753 200.373 23.8196 200.27 23.931 200.104C24.0424 199.937 24.0877 199.768 24.0259 199.727C23.964 199.686 23.8217 199.785 23.7083 199.951Z" fill="#76C8E8"/>
<path d="M22.7182 198.248C22.6048 198.41 22.5635 198.579 22.6233 198.622C22.6831 198.665 22.8296 198.565 22.9389 198.398C23.0482 198.231 23.0935 198.069 23.0317 198.026C22.9698 197.982 22.8399 198.083 22.7182 198.248Z" fill="#76C8E8"/>
<path d="M21.3344 204.96C21.289 205.153 21.3138 205.326 21.386 205.342C21.4581 205.359 21.553 205.213 21.5922 205.017C21.6314 204.822 21.6128 204.653 21.5406 204.639C21.4685 204.624 21.3757 204.764 21.3344 204.96Z" fill="#76C8E8"/>
<path d="M25.651 195.592C25.5025 195.73 25.4242 195.885 25.4737 195.94C25.5232 195.996 25.6799 195.928 25.8346 195.792C25.9892 195.656 26.0614 195.5 26.0099 195.444C25.9583 195.389 25.7995 195.457 25.651 195.592Z" fill="#76C8E8"/>
<path d="M35.3394 194.572C33.0708 196.584 26.6509 202.424 28.0698 208.594C29.4886 214.764 33.605 219.373 39.9774 226.454C46.3499 233.535 47.8327 237.856 47.3646 244.18C46.5108 240.065 43.9865 233.235 39.5526 228.902C35.1187 224.569 26.7664 216.375 25.4878 210.442C24.2092 204.509 25.5662 198.156 32.1098 193.16C40.3054 186.896 35.3394 194.572 35.3394 194.572Z" fill="#80D3ED"/>
<path d="M11.9659 210.536C15.9853 209.353 17.6227 206.788 20.0913 203.733C20.578 203.13 21.0482 202.55 21.506 202.015C25.082 197.859 28.2477 194.672 33.6509 194.551C33.7225 194.553 33.7939 194.542 33.8607 194.516C33.9275 194.49 33.9883 194.451 34.0394 194.4C34.0904 194.35 34.1307 194.29 34.1576 194.224C34.1846 194.158 34.1977 194.087 34.1962 194.015C34.1946 193.944 34.1784 193.873 34.1486 193.808C34.1188 193.743 34.076 193.685 34.0228 193.637C33.9696 193.589 33.9072 193.553 33.8393 193.53C33.7715 193.507 33.6996 193.498 33.6282 193.504C27.3258 193.644 23.657 197.908 20.71 201.334C20.2439 201.875 19.7675 202.465 19.2664 203.074C16.905 205.996 15.3872 208.732 11.3162 210.047C11.0399 210.135 10.0294 210.431 10.0892 210.713C10.1387 210.929 11.2317 210.76 11.9659 210.536Z" fill="#70C7E8"/>
<path d="M27.8161 230.801C28.1048 230.786 28.21 229.095 28.2286 228.807C28.4554 224.653 31.8025 217.903 33.7968 214.424L34.2381 213.657C36.5293 209.67 39.1299 205.15 40.0703 200.204C40.3092 198.788 40.4628 197.358 40.5302 195.923C40.5652 195.421 40.5982 194.919 40.6395 194.425C40.6621 194.158 40.6869 193.886 40.7116 193.602C40.8642 191.946 41.0375 190.066 40.6518 188.459C40.6193 188.323 40.5338 188.205 40.4141 188.131C40.2944 188.058 40.1503 188.035 40.0135 188.067C39.8768 188.1 39.7586 188.185 39.6849 188.304C39.6113 188.424 39.5881 188.567 39.6207 188.704C39.9671 190.144 39.8104 191.858 39.6599 193.512C39.6337 193.786 39.609 194.06 39.5856 194.335C39.5444 194.833 39.5093 195.339 39.4763 195.847C39.4091 197.24 39.2603 198.629 39.0309 200.005C38.1214 204.776 35.5703 209.215 33.3183 213.13L32.877 213.898C31.0374 217.111 27.6924 223.664 27.4325 228.836C27.4181 229.124 27.5233 230.805 27.812 230.795L27.8161 230.801Z" fill="#70C7E8"/>
<path d="M37.895 197.321C35.8203 201.044 29.3344 232.811 9.13835 235.938C28.6703 226.911 31.1162 203.83 36.9174 192.515C42.7187 181.199 39.2602 194.872 37.895 197.321Z" fill="#80D3ED"/>
<path d="M32.5723 208.864C32.3517 209.335 32.3145 209.786 32.4898 209.868C32.6651 209.951 32.9868 209.634 33.2096 209.161C33.4323 208.687 33.4674 208.237 33.2921 208.155C33.1168 208.072 32.7909 208.391 32.5723 208.864Z" fill="#76C8E8"/>
<path d="M31.7929 208.066C31.6795 208.31 31.6588 208.543 31.7516 208.584C31.8444 208.625 32.0094 208.463 32.1229 208.218C32.2363 207.973 32.2548 207.74 32.1641 207.697C32.0734 207.654 31.9043 207.821 31.7929 208.066Z" fill="#76C8E8"/>
<path d="M28.3562 216.11C28.2614 216.316 28.2449 216.521 28.3212 216.548C28.3975 216.575 28.5377 216.445 28.6347 216.238C28.7316 216.03 28.7481 215.826 28.6718 215.799C28.5955 215.773 28.4532 215.904 28.3562 216.11Z" fill="#76C8E8"/>
<path d="M30.9036 210.234C30.7386 210.588 30.7098 210.928 30.8438 210.989C30.9778 211.051 31.2171 210.813 31.3821 210.457C31.547 210.101 31.5759 209.761 31.446 209.702C31.3161 209.642 31.0686 209.879 30.9036 210.234Z" fill="#76C8E8"/>
<path d="M33.1619 204.136C32.997 204.492 32.9701 204.83 33.1021 204.891C33.2341 204.953 33.4754 204.714 33.6424 204.361C33.8095 204.007 33.8342 203.665 33.7043 203.603C33.5744 203.542 33.3269 203.78 33.1619 204.136Z" fill="#76C8E8"/>
<path d="M29.8087 215.272C29.6932 215.517 29.6747 215.754 29.7675 215.795C29.8603 215.836 30.0273 215.673 30.1428 215.426C30.2583 215.18 30.2769 214.947 30.1841 214.902C30.0913 214.857 29.9242 215.027 29.8087 215.272Z" fill="#76C8E8"/>
<path d="M30.0869 213.122C29.9363 213.546 29.9384 213.945 30.0869 213.995C30.2354 214.044 30.4993 213.754 30.6519 213.328C30.8045 212.902 30.8025 212.505 30.6519 212.456C30.5014 212.406 30.2436 212.696 30.0869 213.122Z" fill="#76C8E8"/>
<path d="M33.0069 206.675C32.8728 206.963 32.8501 207.235 32.9574 207.282C33.0646 207.33 33.2564 207.14 33.3905 206.854C33.5245 206.568 33.5451 206.297 33.44 206.249C33.3348 206.202 33.1409 206.391 33.0069 206.675Z" fill="#76C8E8"/>
<path d="M32.2569 206.128C32.1724 206.307 32.16 206.48 32.226 206.513C32.292 206.546 32.4157 206.422 32.5003 206.239C32.5848 206.056 32.5993 205.889 32.5312 205.858C32.4631 205.828 32.3415 205.947 32.2569 206.128Z" fill="#76C8E8"/>
<path d="M31.5672 211.956C31.4806 212.135 31.4682 212.308 31.5342 212.341C31.6002 212.374 31.726 212.25 31.8085 212.069C31.891 211.888 31.9075 211.717 31.8395 211.686C31.7714 211.656 31.6497 211.775 31.5672 211.956Z" fill="#76C8E8"/>
<path d="M34.3968 203.885C34.2648 204.171 34.2421 204.442 34.3494 204.492C34.4566 204.541 34.6484 204.35 34.7824 204.064C34.9165 203.778 34.9371 203.508 34.8299 203.459C34.7226 203.41 34.5308 203.601 34.3968 203.885Z" fill="#76C8E8"/>
<path d="M27.0904 203.712C26.9934 204.227 27.0677 204.671 27.2595 204.706C27.4513 204.741 27.6822 204.356 27.7812 203.842C27.8802 203.327 27.8018 202.885 27.6121 202.848C27.4224 202.811 27.1852 203.202 27.0904 203.712Z" fill="#76C8E8"/>
<path d="M26.2035 202.581C26.1293 202.84 26.1478 203.073 26.2448 203.1C26.3417 203.126 26.4799 202.939 26.5541 202.688C26.6283 202.437 26.6098 202.194 26.5128 202.168C26.4159 202.141 26.2777 202.326 26.2035 202.581Z" fill="#76C8E8"/>
<path d="M26.2244 211.049C26.3028 211.255 26.4306 211.415 26.509 211.387C26.5874 211.358 26.5915 211.162 26.509 210.946C26.4265 210.73 26.3028 210.582 26.2244 210.611C26.146 210.64 26.1584 210.837 26.2244 211.049Z" fill="#76C8E8"/>
<path d="M25.9172 205.282C25.9625 205.669 26.1234 205.973 26.2616 205.957C26.3997 205.941 26.4864 205.611 26.441 205.22C26.3956 204.83 26.2348 204.527 26.0986 204.544C25.9625 204.56 25.8697 204.891 25.9172 205.282Z" fill="#76C8E8"/>
<path d="M27.7006 198.545C27.5398 198.903 27.5191 199.24 27.6532 199.3C27.7872 199.359 28.0223 199.117 28.1832 198.759C28.3441 198.401 28.3647 198.059 28.2327 198.002C28.1007 197.944 27.8594 198.187 27.7006 198.545Z" fill="#76C8E8"/>
<path d="M27.1257 209.292C27.2267 209.545 27.3855 209.72 27.4804 209.681C27.5752 209.642 27.567 209.407 27.4659 209.156C27.3649 208.905 27.2061 208.731 27.1112 208.768C27.0164 208.805 27.0246 209.041 27.1257 209.292Z" fill="#76C8E8"/>
<path d="M25.7787 208.014C25.8632 208.457 26.0653 208.792 26.2324 208.761C26.3994 208.73 26.4633 208.35 26.3788 207.899C26.2942 207.449 26.0921 207.122 25.9271 207.152C25.7622 207.183 25.6962 207.568 25.7787 208.014Z" fill="#76C8E8"/>
<path d="M27.9383 201.015C27.8516 201.319 27.8723 201.591 27.9857 201.622C28.0991 201.653 28.26 201.435 28.3445 201.13C28.4291 200.826 28.4085 200.556 28.2971 200.525C28.1857 200.495 28.0249 200.713 27.9383 201.015Z" fill="#76C8E8"/>
<path d="M26.7785 200.241C26.7249 200.433 26.7394 200.605 26.8095 200.628C26.8796 200.651 26.9848 200.509 27.0363 200.315C27.0879 200.122 27.0796 199.953 27.0075 199.933C26.9353 199.912 26.8425 200.05 26.7785 200.241Z" fill="#76C8E8"/>
<path d="M27.1623 206.613C27.1829 206.819 27.2613 206.965 27.3355 206.959C27.4098 206.952 27.451 206.782 27.4283 206.584C27.4057 206.387 27.3314 206.232 27.2572 206.243C27.1829 206.253 27.1396 206.413 27.1623 206.613Z" fill="#76C8E8"/>
<path d="M29.5235 198.548C29.373 198.824 29.3338 199.094 29.4369 199.151C29.54 199.209 29.7442 199.028 29.8968 198.752C30.0494 198.476 30.0886 198.207 29.9855 198.149C29.8824 198.092 29.6741 198.273 29.5235 198.548Z" fill="#76C8E8"/>
<path d="M42.7639 201.32C42.1453 204.741 27.7525 228.939 40.1159 241.726C24.5786 231.472 38.7858 208.572 39.9097 201.678C41.0337 194.784 43.9229 194.955 42.7639 201.32Z" fill="#80D3ED"/>
<path d="M17.7252 223.722C23.7182 222.191 26.1806 219.165 27.7355 212.487C28.5605 208.907 30.332 204.797 32.9841 200.271L33.2625 199.791C35.1825 196.499 37.8181 191.986 41.4044 191.708C41.4733 191.703 41.5405 191.684 41.6021 191.652C41.6637 191.621 41.7186 191.578 41.7635 191.526C41.8542 191.42 41.899 191.282 41.888 191.143C41.8771 191.004 41.8113 190.876 41.7051 190.785C41.599 190.695 41.4611 190.65 41.3219 190.661C37.1747 191.004 34.3926 195.773 32.3551 199.265L32.0767 199.742C29.373 204.36 27.5685 208.568 26.7147 212.25C25.2711 218.482 22.9531 221.381 17.5891 223.024C17.3127 223.109 15.9805 223.387 16.0279 223.673C16.0754 223.958 17.3148 223.819 17.7252 223.722Z" fill="#70C7E8"/>
<path d="M36.8434 211.462C36.6681 211.952 36.6743 212.407 36.8579 212.47C37.0414 212.534 37.3301 212.189 37.5075 211.697C37.6848 211.205 37.6766 210.755 37.4931 210.689C37.3095 210.623 37.0187 210.966 36.8434 211.462Z" fill="#76C8E8"/>
<path d="M38.2019 210.631C38.1277 210.89 38.1442 211.125 38.2411 211.152C38.3381 211.179 38.4783 210.991 38.5505 210.74C38.6226 210.489 38.6103 210.249 38.5133 210.22C38.4164 210.191 38.2782 210.372 38.2019 210.631Z" fill="#76C8E8"/>
<path d="M34.6636 218.286C34.61 218.509 34.6326 218.698 34.7151 218.725C34.7976 218.751 34.9069 218.583 34.9626 218.36C35.0183 218.138 34.9956 217.949 34.9131 217.924C34.8306 217.9 34.7193 218.068 34.6636 218.286Z" fill="#76C8E8"/>
<path d="M35.8617 217.402C35.806 217.668 35.8411 217.902 35.9401 217.921C36.0391 217.939 36.1669 217.742 36.2206 217.476C36.2742 217.211 36.2412 216.98 36.1422 216.958C36.0432 216.935 35.9174 217.139 35.8617 217.402Z" fill="#76C8E8"/>
<path d="M35.6797 215.321C35.556 215.754 35.5828 216.144 35.7436 216.19C35.9045 216.235 36.1396 215.926 36.2675 215.49C36.3953 215.054 36.3644 214.667 36.2035 214.62C36.0427 214.573 35.8096 214.887 35.6797 215.321Z" fill="#76C8E8"/>
<path d="M37.9795 209.027C37.8455 209.312 37.8228 209.584 37.93 209.631C38.0373 209.679 38.2291 209.489 38.3631 209.205C38.4972 208.922 38.5178 208.648 38.4126 208.599C38.3074 208.549 38.1239 208.741 37.9795 209.027Z" fill="#76C8E8"/>
<path d="M39.0966 208.23C39.0121 208.409 38.9977 208.582 39.0657 208.615C39.1338 208.648 39.2554 208.525 39.34 208.344C39.4246 208.163 39.4369 207.992 39.3709 207.961C39.3049 207.93 39.1812 208.049 39.0966 208.23Z" fill="#76C8E8"/>
<path d="M37.2105 213.67C37.1259 213.849 37.1115 214.022 37.1795 214.055C37.2476 214.087 37.3693 213.966 37.4518 213.783C37.5343 213.6 37.5528 213.433 37.4848 213.402C37.4167 213.372 37.293 213.489 37.2105 213.67Z" fill="#76C8E8"/>
<path d="M36.0926 213.551C36.0534 213.705 36.0699 213.841 36.1276 213.857C36.1854 213.874 36.2637 213.757 36.3008 213.602C36.338 213.448 36.3235 213.31 36.2658 213.298C36.208 213.285 36.1235 213.397 36.0926 213.551Z" fill="#76C8E8"/>
<path d="M35.505 219.099C35.4658 219.253 35.4823 219.389 35.5401 219.405C35.5978 219.422 35.6762 219.304 35.7112 219.148C35.7463 218.992 35.736 218.858 35.6782 218.846C35.6205 218.833 35.5359 218.944 35.505 219.099Z" fill="#76C8E8"/>
<path d="M38.7937 207.263C38.7545 207.415 38.771 207.553 38.8288 207.568C38.8865 207.582 38.9649 207.467 39.002 207.313C39.0391 207.158 39.0247 207.022 38.967 207.008C38.9092 206.994 38.8308 207.109 38.7937 207.263Z" fill="#76C8E8"/>
<path d="M38.3915 230.287C38.4545 230.279 38.5151 230.258 38.5689 230.225C38.8205 230.068 38.5442 229.451 38.4699 229.12C37.412 224.421 40.326 215.542 40.9447 213.655C41.3406 212.45 41.749 211.205 42.0789 209.936C43.2771 205.331 42.9038 197.065 40.5941 192.897C40.5644 192.831 40.5207 192.773 40.4659 192.725C40.4112 192.678 40.3468 192.644 40.2772 192.624C40.2076 192.604 40.1345 192.6 40.0631 192.612C39.9918 192.623 39.9238 192.651 39.864 192.691C39.743 192.792 39.6619 192.932 39.635 193.087C39.6082 193.242 39.6375 193.401 39.7176 193.537C41.8294 197.357 42.1779 205.27 41.0725 209.526C40.7529 210.761 40.3507 211.983 39.9609 213.168C39.3237 215.11 36.8407 223.53 37.8038 229.116C37.8492 229.379 38.1833 230.313 38.3936 230.284L38.3915 230.287Z" fill="#70C7E8"/>
<path d="M45.8515 191.381C45.1999 195.347 46.2186 200.168 45.4391 204.099C44.7915 207.348 42.8055 202.591 41.5207 203.535C39.5595 204.976 39.9575 200.513 38.2932 200.524C36.9548 200.524 35.2287 200.511 35.0245 198.335C34.8327 196.277 33.5025 197.979 32.1373 197.58C31.0319 197.257 31.2732 196.565 31.2835 195.751C31.2938 194.936 28.7696 195.43 29.015 194.564C29.778 191.836 26.3835 193.383 25.8741 191.749C25.3091 189.935 28.7799 189.307 30.0812 188.622C31.7145 187.764 36.6805 181.979 38.5263 183.413L47.9365 190.77L45.8515 191.381Z" fill="#A8DDED"/>
<path d="M49.6123 190.955C47.5222 193.808 46.1218 197.105 45.5207 200.588C44.7535 204.675 44.0524 205.396 43.512 202.466C42.9717 199.536 41.7199 202.367 41.0517 202.612C40.3835 202.857 40.4062 200.009 40.6145 198.637C40.8228 197.265 38.6553 198.557 37.0591 198.964C35.4629 199.372 36.2136 197.691 36.1827 196.084C36.1517 194.477 34.6174 195.568 33.0026 196.101C31.3878 196.633 32.2416 195.337 32.5778 194.222C32.9139 193.107 31.0022 194.85 30.1443 194.374C29.2864 193.899 30.7135 192.43 30.0742 191.945C29.4348 191.459 27.6613 192.336 26.7271 191.636C25.7928 190.937 32.1859 187.758 34.473 183.037C36.7601 178.315 49.6123 190.955 49.6123 190.955Z" fill="#4FC4E8"/>
<path d="M34.4736 183.037C36.7524 178.315 49.6211 190.955 49.6211 190.955C48.2844 192.79 47.2247 194.811 46.4761 196.952C45.7213 196.851 45.0016 196.67 44.4324 196.238C40.7636 193.44 43.0424 188.421 36.8534 189.223C32.2772 189.818 31.7596 188.556 31.2853 187.176C32.5123 185.985 33.7126 184.596 34.4736 183.037Z" fill="#45B3E6"/>
<path d="M57.8312 155.117C49.7346 150.07 32.6052 151.014 26.1915 163.443C19.7778 175.871 25.2779 184.357 29.0581 183.037C32.8383 181.716 34.2283 181.185 34.3809 183.549C34.5335 185.913 33.5848 187.361 38.9365 187.223C44.2881 187.085 44.1314 188.589 44.2881 191.891C44.4449 195.193 47.4372 193.743 50.1347 193.796C52.8322 193.85 52.2609 195.648 52.4507 197.277C52.6404 198.907 53.455 201.727 59.3676 196.938C65.2802 192.149 70.869 185.643 71.1825 177.823C71.4959 170.004 68.7696 161.943 57.8312 155.117Z" fill="#91D7ED"/>
<path d="M63.0263 173.418C63.6697 176.617 65.3463 178.973 66.7734 178.691C68.2006 178.409 68.8357 175.582 68.1944 172.385C67.553 169.188 65.8743 166.831 64.4472 167.11C63.0201 167.39 62.3828 170.219 63.0263 173.418Z" fill="white"/>
<path d="M60.9036 160.795C60.322 161.147 60.2664 162.116 60.7778 162.957C61.2893 163.799 62.176 164.192 62.7576 163.844C63.3392 163.496 63.3969 162.523 62.8855 161.682C62.374 160.84 61.4893 160.443 60.9036 160.795Z" fill="white"/>
<path d="M39.5484 186.661C39.4721 186.739 42.4727 186.511 43.9369 187.933C45.4011 189.354 44.7763 191.891 44.8526 191.811C44.9289 191.73 45.6775 189.07 44.2133 187.649C42.749 186.227 39.6288 186.583 39.5484 186.661Z" fill="white"/>
<path d="M47.6169 193.685C47.555 193.776 50.2422 192.883 51.694 193.872C53.1459 194.862 52.8097 197.37 52.8716 197.273C52.9334 197.176 53.3686 194.537 51.9188 193.545C50.469 192.554 47.6725 193.591 47.6169 193.685Z" fill="white"/>
<path d="M30.4209 182.123C30.3611 182.215 32.7987 181.129 34.0155 181.938C35.2322 182.746 34.7682 185.147 34.8404 185.055C34.9126 184.962 35.4591 182.417 34.2465 181.609C33.0338 180.8 30.4828 182.032 30.4209 182.123Z" fill="white"/>
<path d="M24.9296 175.665C24.9131 176.889 25.3606 177.887 25.9277 177.893C26.4948 177.899 26.9692 176.916 26.9877 175.692C27.0063 174.468 26.5546 173.472 25.9875 173.464C25.4204 173.456 24.944 174.443 24.9296 175.665Z" fill="#69CBE8"/>
<path d="M29.3984 178.771C29.3984 179.36 29.6047 179.841 29.8789 179.843C30.1532 179.845 30.3821 179.372 30.3904 178.786C30.3986 178.2 30.1842 177.718 29.9078 177.712C29.6315 177.706 29.4087 178.183 29.3984 178.771Z" fill="#69CBE8"/>
<path d="M25.4115 170.205C25.3125 170.721 25.4259 171.178 25.6651 171.223C25.9043 171.269 26.1807 170.886 26.2838 170.372C26.3869 169.857 26.2694 169.399 26.0281 169.343C25.7868 169.287 25.5104 169.689 25.4115 170.205Z" fill="#69CBE8"/>
<path d="M28.1523 169.386C28.0904 169.713 28.1647 170.003 28.3152 170.034C28.4658 170.065 28.6411 169.828 28.705 169.493C28.7689 169.158 28.705 168.876 28.5442 168.847C28.3833 168.818 28.2162 169.059 28.1523 169.386Z" fill="#69CBE8"/>
<path d="M29.2125 164.42C29.0434 164.706 29.0062 165.002 29.1465 165.083C29.2867 165.163 29.5259 164.992 29.695 164.704C29.8642 164.416 29.9013 164.122 29.7631 164.044C29.6249 163.965 29.3836 164.132 29.2125 164.42Z" fill="#69CBE8"/>
<path d="M32.1903 160.171C31.949 160.401 31.8376 160.677 31.9428 160.788C32.048 160.899 32.3326 160.807 32.5759 160.582C32.8193 160.358 32.9307 160.078 32.8234 159.965C32.7162 159.852 32.4357 159.945 32.1903 160.171Z" fill="#69CBE8"/>
<path d="M26.3517 165.434C26.1702 166.066 26.263 166.648 26.5579 166.732C26.8528 166.817 27.2364 166.37 27.4179 165.737C27.5994 165.103 27.5066 164.521 27.2117 164.439C26.9167 164.356 26.5332 164.801 26.3517 165.434Z" fill="#69CBE8"/>
<path d="M28.9814 161.254C28.5875 161.92 28.5195 162.609 28.8288 162.793C29.1382 162.976 29.7094 162.587 30.1033 161.914C30.4972 161.241 30.5653 160.558 30.258 160.377C29.9507 160.196 29.3753 160.587 28.9814 161.254Z" fill="#69CBE8"/>
<path d="M32.463 157.285C32.0898 157.696 31.9413 158.165 32.1331 158.336C32.3249 158.507 32.7786 158.317 33.1477 157.908C33.5169 157.499 33.6695 157.029 33.4798 156.859C33.29 156.688 32.8239 156.877 32.463 157.285Z" fill="#69CBE8"/>
<path d="M45.3317 195.847C45.2203 196.357 45.2843 196.806 45.474 196.845C45.6637 196.884 45.9071 196.508 46.0205 195.997C46.1339 195.487 46.0679 195.041 45.8782 194.998C45.6885 194.954 45.443 195.331 45.3317 195.847Z" fill="#43A3D8"/>
<path d="M40.8785 194.195C40.8207 194.458 40.8537 194.691 40.9527 194.711C41.0517 194.732 41.1775 194.534 41.2332 194.271C41.2889 194.008 41.2579 193.777 41.161 193.755C41.0641 193.732 40.9362 193.93 40.8785 194.195Z" fill="#43B5D8"/>
<path d="M39.9324 188.482C39.885 188.704 39.9118 188.893 39.9964 188.918C40.0809 188.943 40.184 188.77 40.2335 188.545C40.283 188.321 40.2541 188.134 40.1717 188.111C40.0892 188.089 39.9819 188.262 39.9324 188.482Z" fill="#43A3D8"/>
<path d="M42.9682 198.094C42.8857 198.477 42.9332 198.814 43.0775 198.845C43.2219 198.876 43.4013 198.592 43.49 198.207C43.5786 197.823 43.525 197.487 43.3827 197.456C43.2404 197.426 43.0507 197.711 42.9682 198.094Z" fill="#43B5D8"/>
<path d="M42.8315 193.448C42.7469 193.833 42.7964 194.168 42.9387 194.199C43.081 194.23 43.2645 193.944 43.3512 193.562C43.4378 193.179 43.3862 192.839 43.246 192.811C43.1058 192.782 42.914 193.068 42.8315 193.448Z" fill="#43A3D8"/>
<path d="M41.4848 188.668C41.4271 188.933 41.4621 189.168 41.5591 189.188C41.656 189.209 41.7859 189.011 41.8437 188.746C41.9014 188.48 41.8684 188.248 41.7694 188.225C41.6704 188.203 41.5446 188.402 41.4848 188.668Z" fill="#43A3D8"/>
<path d="M44.0922 200.804C44.0365 201.252 44.1252 201.627 44.2984 201.653C44.4717 201.68 44.647 201.328 44.7109 200.88C44.7748 200.431 44.6758 200.057 44.5047 200.028C44.3335 199.999 44.15 200.355 44.0922 200.804Z" fill="#43B5D8"/>
<path d="M44.2341 194.162C44.1681 194.471 44.2052 194.74 44.3207 194.765C44.4362 194.79 44.5806 194.559 44.6486 194.253C44.7167 193.946 44.6755 193.675 44.562 193.652C44.4486 193.629 44.3022 193.856 44.2341 194.162Z" fill="#43A3D8"/>
<path d="M41.5428 195.872C41.4995 196.066 41.5263 196.236 41.5985 196.255C41.6707 196.273 41.7635 196.125 41.8047 195.93C41.846 195.734 41.8233 195.566 41.7511 195.549C41.6789 195.533 41.5861 195.679 41.5428 195.872Z" fill="#43B5D8"/>
<path d="M40.3613 191.667C40.318 191.86 40.3427 192.031 40.4149 192.05C40.4871 192.068 40.5799 191.918 40.6211 191.723C40.6624 191.527 40.6397 191.361 40.5675 191.344C40.4953 191.328 40.4025 191.472 40.3613 191.667Z" fill="#43B5D8"/>
<path d="M42.8562 190.43C42.7882 190.739 42.8273 191.006 42.9408 191.033C43.0542 191.06 43.2027 190.827 43.2687 190.521C43.3347 190.214 43.2996 189.944 43.1841 189.92C43.0686 189.895 42.9284 190.126 42.8562 190.43Z" fill="#43A3D8"/>
<path d="M51.7971 190.258C54.0327 191.606 55.5237 193.576 58.0521 192.521C60.665 191.408 60.7619 189.067 60.4588 186.279C60.1391 183.317 60.5825 180.877 61.6301 178.14C63.3625 173.614 61.1579 163.739 56.3424 160.412C51.9683 157.392 43.3603 153.889 39.1243 159.022C37.3363 161.184 36.1526 163.548 34.28 165.595C29.5471 170.751 30.6875 173.561 32.3621 176.071C33.8902 178.363 39.8214 178.54 41.298 180.924C42.7416 183.24 42.9313 185.213 45.9835 186.419C46.7363 186.715 47.522 186.946 48.2995 187.176C48.5449 187.563 48.7326 188.122 48.9903 188.507L51.7971 190.258Z" fill="#79D2ED"/>
<path d="M56.845 184.678C57.0513 183.67 56.6945 182.674 56.3728 181.695C55.6077 179.372 56.2449 177.675 56.8698 175.474C57.4947 173.272 57.2492 171.108 56.3996 168.919C55.6901 167.094 54.9085 165.216 53.6794 163.607C51.912 161.282 46.5645 158.785 42.6049 161.887C41.2706 162.932 40.786 164.323 39.8889 165.613C39.1217 166.714 37.8781 167.477 37.2079 168.631C36.4902 169.865 35.8055 171.174 35.158 172.439C33.2854 176.107 39.561 175.795 41.8357 176.994C43.1514 177.689 43.6917 178.72 44.1289 179.961C44.6404 181.415 45.6365 182.152 47.1399 182.808C48.6062 183.446 49.4228 183.95 50.1735 185.277C50.9036 186.558 51.8233 187.719 53.4278 188.064C55.5355 188.515 56.6305 185.721 56.845 184.678Z" fill="#66CCED"/>
<path d="M65.5196 184.222C65.367 184.859 65.4598 185.427 65.7258 185.491C65.9919 185.555 66.3301 185.079 66.4827 184.452C66.6353 183.824 66.5446 183.246 66.2765 183.183C66.0084 183.119 65.6743 183.586 65.5196 184.222Z" fill="white"/>
<path d="M55.9751 202.429C56.1916 204.513 55.5833 206.206 53.1065 204.99C50.8916 203.906 50.244 201.32 49.0025 199.365C47.7301 197.366 44.2592 197.816 42.8156 195.607C41.5782 193.739 41.4896 191.266 38.9653 190.636C36.8824 190.116 34.6675 190.706 32.6073 190.075C29.8954 189.241 30.6976 185.972 27.2762 186.118C25.4346 186.197 21.5018 187.989 21.1698 185.164C20.9821 183.611 21.5554 183.189 22.6134 182.411C22.9908 183.576 21.9473 185.549 24.9108 185.182C26.8411 184.944 29.5324 183.6 31.0379 185.516C32.1969 186.993 32.1577 188.865 34.42 189.054C36.6824 189.243 38.9385 188.231 41.0029 189.655C42.9105 190.976 42.7455 193.698 44.0221 195.457C45.709 197.781 49.5036 195.502 50.8936 197.639C52.0279 199.386 50.8544 201.892 52.5434 203.513C54.616 205.505 54.812 202.896 55.971 202.429H55.9751Z" fill="#CCE8F5"/>
<path d="M31.7577 186.69C32.3331 187.836 32.7435 188.906 34.4243 189.048C36.6742 189.237 38.9428 188.225 41.0071 189.649C42.9147 190.97 42.7498 193.691 44.0263 195.45C44.6615 196.327 45.5978 196.549 46.5918 196.598C46.4681 196.94 46.3505 197.29 46.2391 197.65C44.9502 197.207 43.5932 196.786 42.8157 195.592C41.5784 193.724 41.4897 191.252 38.9654 190.622C36.8825 190.101 34.6676 190.692 32.6074 190.06C31.3865 189.684 30.8771 188.816 30.376 187.989C30.8338 187.596 31.302 187.159 31.7577 186.69Z" fill="#ADDEF0"/>
<path d="M51.6631 202.98C50.6154 201.795 50.9619 198.971 49.5101 198.006C48.8089 197.541 45.1792 197.117 43.614 195.846C44.5069 197.251 47.2807 197.469 48.6233 198.314C50.2731 199.353 50.2401 202.485 51.6631 202.976V202.98Z" fill="white"/>
<path d="M55.5352 203.451C54.438 204.943 53.9946 204.85 52.551 203.875C53.2501 205.274 55.3392 205.521 55.5352 203.451Z" fill="white"/>
<path d="M42.1201 192.726C41.4272 186.834 34.0091 191.13 31.953 188.758C32.8687 191.895 40.8209 187.844 42.1201 192.726Z" fill="white"/>
<path d="M22.3202 183.545C21.2128 185.501 23.4875 185.936 24.6671 185.682C26.4365 185.3 29.8826 183.683 30.458 186.728C29.2949 184.738 25.7477 185.905 24.3 186.096C22.2686 186.355 20.2909 185.257 22.3202 183.545Z" fill="white"/>
<path d="M41.6691 203.079L40.9349 203.503C41.7474 202.394 42.9724 201.015 43.6592 204.212C42.9951 203.334 42.9353 202.27 41.6691 203.079Z" fill="white"/>
<path d="M38.0846 199.771L37.1256 199.898C39.6003 198.528 40.3654 197.549 40.1963 202.573C39.7261 201.495 40.217 199.213 38.0846 199.771Z" fill="white"/>
<path d="M45.4032 202.68C45.4589 203.521 44.931 205.825 43.9699 204.653C44.8835 204.926 45.3744 203.336 45.4032 202.68Z" fill="white"/>
<path d="M35.573 196.899C35.5338 196.615 35.406 196.181 35.0719 196.169C34.7709 196.182 34.476 196.258 34.2057 196.391C33.9236 196.502 33.6305 196.582 33.3313 196.631C33.0204 196.708 32.6981 196.726 32.3806 196.685C31.9042 196.599 31.7475 196.068 31.7475 195.675C31.5933 195.973 31.5565 196.318 31.6443 196.642C31.6961 196.817 31.8002 196.973 31.9428 197.088C32.0854 197.203 32.2596 197.272 32.4424 197.286C32.7406 197.294 33.038 197.25 33.321 197.156C33.4603 197.098 33.6036 197.05 33.7499 197.012C33.9459 196.973 34.1418 196.938 34.3377 196.895C34.6491 196.825 35.109 196.646 35.3173 196.971C35.4245 197.138 35.5606 197.913 35.5957 198.475C35.6346 197.95 35.627 197.423 35.573 196.899Z" fill="white"/>
<path d="M29.9814 194.654C28.4822 194.777 31.5962 191.625 27.4923 192.224C30.9755 192.224 28.1666 195.23 29.9814 194.654Z" fill="white"/>
<path d="M26.7175 190.626C27.1555 190.24 27.6405 189.911 28.1611 189.646C27.4579 189.78 26.2473 190.48 26.0287 191.187C25.9717 191.376 25.979 191.578 26.0493 191.761C26.1256 191.947 26.501 192.058 26.5608 191.879C26.6062 191.743 26.4123 191.517 26.3979 191.375C26.395 191.235 26.4218 191.095 26.4766 190.966C26.5313 190.837 26.6127 190.721 26.7155 190.626H26.7175Z" fill="white"/>
</g>
<g opacity="0.5">
<path d="M121.476 117.285C121.476 117.285 117.77 111.735 111.296 113.102C112.471 114.667 114.035 115.88 115.826 116.616C117.617 117.352 119.568 117.583 121.476 117.285Z" fill="#90DAF3"/>
<path d="M139.814 86.351C139.814 86.351 136.109 80.7875 129.635 82.0998C130.804 83.6744 132.365 84.8995 134.156 85.6473C135.947 86.395 137.901 86.6381 139.814 86.351Z" fill="#90DAF3"/>
<path d="M125.274 122.671C125.274 122.671 120.807 117.709 114.573 119.937C115.951 121.335 117.672 122.327 119.556 122.808C121.439 123.289 123.415 123.242 125.274 122.671Z" fill="#90DAF3"/>
<path d="M134.933 113.102C134.933 113.102 130.478 108.14 124.231 110.368C125.61 111.765 127.331 112.756 129.214 113.238C131.098 113.719 133.073 113.672 134.933 113.102Z" fill="#90DAF3"/>
<path d="M126.812 130.53C126.812 130.53 124.431 124.242 117.837 124.037C118.629 125.84 119.879 127.394 121.457 128.536C123.036 129.678 124.885 130.366 126.812 130.53Z" fill="#90DAF3"/>
<path d="M97.1826 139.662C97.1826 139.662 92.7148 134.713 86.4812 136.928C87.8588 138.326 89.5802 139.318 91.4638 139.799C93.3474 140.28 95.3232 140.233 97.1826 139.662Z" fill="#90DAF3"/>
<path d="M97.3164 105.447C97.3164 105.447 93.611 99.8701 87.1366 101.182C88.3025 102.762 89.8629 103.991 91.6541 104.742C93.4453 105.492 95.4012 105.736 97.3164 105.447Z" fill="#90DAF3"/>
<path d="M147.359 114.661C147.359 114.661 143.654 109.097 137.18 110.409C138.347 111.986 139.908 113.213 141.699 113.961C143.49 114.709 145.445 114.951 147.359 114.661Z" fill="#90DAF3"/>
<path d="M134.999 154.63C134.999 154.63 131.294 149.053 124.819 150.365C125.985 151.944 127.546 153.174 129.337 153.924C131.128 154.675 133.084 154.918 134.999 154.63Z" fill="#90DAF3"/>
<path d="M111.456 123.669C111.456 123.669 107.737 118.092 101.276 119.418C102.444 120.995 104.005 122.221 105.796 122.969C107.587 123.717 109.542 123.959 111.456 123.669Z" fill="#90DAF3"/>
<path d="M121.395 105.816C121.395 105.816 117.689 100.252 111.215 101.565C112.382 103.141 113.943 104.368 115.734 105.116C117.525 105.864 119.481 106.106 121.395 105.816Z" fill="#90DAF3"/>
<path d="M138.905 107.634C138.905 107.634 136.618 101.305 130.023 101.004C130.789 102.819 132.016 104.392 133.578 105.558C135.141 106.724 136.98 107.441 138.905 107.634Z" fill="#90DAF3"/>
<path d="M110.667 139.58C110.667 139.58 108.982 133.073 102.454 132.116C103.042 133.999 104.115 135.685 105.56 136.998C107.005 138.311 108.769 139.203 110.667 139.58Z" fill="#90DAF3"/>
<path d="M90.749 145.485C90.749 145.485 89.0635 138.978 82.5356 138.008C83.1219 139.893 84.1938 141.582 85.639 142.897C87.0842 144.213 88.8493 145.107 90.749 145.485Z" fill="#90DAF3"/>
<path d="M109.944 111.625C109.413 110.879 108.688 110.298 107.852 109.947C107.016 109.597 106.1 109.492 105.209 109.643C105.754 110.374 106.481 110.943 107.313 111.292C108.146 111.64 109.054 111.755 109.944 111.625Z" fill="#90DAF3"/>
<path d="M102.533 110.45C102.533 110.45 98.7877 104.9 92.3133 106.267C93.4938 107.836 95.0652 109.052 96.863 109.788C98.6609 110.524 100.619 110.753 102.533 110.45Z" fill="#90DAF3"/>
<path d="M120.833 79.5293C120.833 79.5293 117.128 73.9521 110.653 75.2644C111.823 76.8393 113.384 78.0654 115.174 78.8154C116.964 79.5654 118.918 79.8119 120.833 79.5293Z" fill="#90DAF3"/>
<path d="M106.252 115.835C106.252 115.835 101.784 110.887 95.5505 113.102C96.9297 114.497 98.6512 115.488 100.534 115.969C102.417 116.45 104.392 116.404 106.252 115.835Z" fill="#90DAF3"/>
<path d="M115.91 106.267C115.91 106.267 111.442 101.319 105.209 103.533C106.588 104.929 108.309 105.919 110.192 106.4C112.075 106.881 114.051 106.835 115.91 106.267Z" fill="#90DAF3"/>
<path d="M107.885 123.696C107.885 123.696 105.49 117.408 98.8956 117.203C99.6896 119.007 100.942 120.561 102.523 121.703C104.104 122.845 105.955 123.533 107.885 123.696Z" fill="#90DAF3"/>
<path d="M78.2686 132.841C78.2686 132.841 73.8007 127.878 67.5671 130.107C68.9471 131.501 70.6687 132.49 72.5514 132.971C74.4342 133.452 76.4088 133.407 78.2686 132.841Z" fill="#90DAF3"/>
<path d="M128.378 107.826C128.378 107.826 124.673 102.262 118.198 103.574C119.367 105.149 120.929 106.374 122.719 107.122C124.51 107.87 126.464 108.113 128.378 107.826Z" fill="#90DAF3"/>
<path d="M116.018 147.795C116.018 147.795 112.312 142.218 105.838 143.544C107.007 145.118 108.569 146.343 110.359 147.091C112.15 147.839 114.104 148.082 116.018 147.795Z" fill="#90DAF3"/>
<path d="M92.4746 116.833C92.4746 116.833 88.7692 111.27 82.2948 112.582C83.4641 114.157 85.0255 115.382 86.8161 116.13C88.6067 116.877 90.5608 117.12 92.4746 116.833Z" fill="#90DAF3"/>
<path d="M102.413 98.9809C102.413 98.9809 98.7077 93.4174 92.2333 94.7297C93.4026 96.3043 94.964 97.5294 96.7546 98.2771C98.5451 99.0249 100.499 99.2679 102.413 98.9809Z" fill="#90DAF3"/>
<path d="M119.924 100.8C119.924 100.8 117.623 94.4707 111.028 94.1699C111.794 95.9881 113.023 97.5627 114.588 98.729C116.153 99.8953 117.996 100.61 119.924 100.8Z" fill="#90DAF3"/>
<path d="M91.6855 132.758C91.6855 132.758 90.0001 126.238 83.4722 125.281C84.0609 127.165 85.1337 128.852 86.5784 130.167C88.0231 131.483 89.7869 132.378 91.6855 132.758Z" fill="#90DAF3"/>
<path d="M90.9629 104.791C90.4303 104.041 89.7036 103.459 88.8646 103.109C88.0257 102.759 87.1077 102.655 86.2141 102.808C86.7607 103.542 87.4893 104.112 88.3243 104.461C89.1593 104.809 90.0703 104.923 90.9629 104.791Z" fill="#90DAF3"/>
<path d="M140.323 117.435C140.323 117.435 134.825 113.717 129.328 117.435C130.992 118.443 132.891 118.975 134.825 118.975C136.76 118.975 138.659 118.443 140.323 117.435Z" fill="#90DAF3"/>
<path d="M67.9678 96.5614C67.9678 96.5614 65.6938 90.2324 59.099 89.9043C59.8597 91.723 61.0837 93.2999 62.6436 94.4708C64.2035 95.6416 66.042 96.3636 67.9678 96.5614Z" fill="#90DAF3"/>
<path d="M145.834 81.6623C145.834 81.6623 140.336 77.9441 134.838 81.6623C136.502 82.6704 138.401 83.2023 140.336 83.2023C142.271 83.2023 144.17 82.6704 145.834 81.6623Z" fill="#90DAF3"/>
<path d="M229.453 100.006C229.453 100.006 223.942 96.2744 218.444 100.006C220.112 101.01 222.013 101.539 223.949 101.539C225.884 101.539 227.785 101.01 229.453 100.006Z" fill="#90DAF3"/>
<path d="M145.781 120.921C145.781 120.921 139.802 118.051 134.893 122.548C136.684 123.298 138.639 123.543 140.555 123.257C142.47 122.97 144.275 122.164 145.781 120.921Z" fill="#90DAF3"/>
<path d="M151.226 108.304C151.226 108.304 145.246 105.433 140.337 109.931C142.128 110.681 144.084 110.926 145.999 110.639C147.914 110.353 149.719 109.547 151.226 108.304Z" fill="#90DAF3"/>
<path d="M150.182 127.619C150.182 127.619 145.647 122.725 139.48 125.077C140.878 126.44 142.608 127.396 144.491 127.843C146.373 128.29 148.338 128.213 150.182 127.619Z" fill="#90DAF3"/>
<path d="M126.211 147.522C126.211 147.522 120.245 144.665 115.336 149.162C117.124 149.919 119.08 150.167 120.995 149.878C122.91 149.589 124.713 148.775 126.211 147.522Z" fill="#90DAF3"/>
<path d="M123.521 60.6787C123.521 60.6787 117.542 57.8218 112.633 62.3191C114.425 63.0688 116.381 63.3121 118.297 63.0235C120.213 62.7349 122.017 61.925 123.521 60.6787Z" fill="#90DAF3"/>
<path d="M113.583 115.836C113.583 115.836 108.085 112.118 102.587 115.836C104.251 116.844 106.15 117.376 108.085 117.376C110.02 117.376 111.919 116.844 113.583 115.836Z" fill="#90DAF3"/>
<path d="M163.317 104.983C163.317 104.983 157.806 101.264 152.308 104.983C153.975 105.992 155.876 106.524 157.813 106.524C159.75 106.524 161.651 105.992 163.317 104.983Z" fill="#90DAF3"/>
<path d="M198.847 141.808C198.847 141.808 194.446 136.792 188.145 138.965C189.514 140.378 191.23 141.388 193.114 141.889C194.997 142.389 196.978 142.361 198.847 141.808Z" fill="#90DAF3"/>
<path d="M214.898 140.441C214.898 140.441 210.497 135.424 204.197 137.598C205.563 139.015 207.28 140.027 209.164 140.528C211.048 141.029 213.03 140.999 214.898 140.441Z" fill="#90DAF3"/>
<path d="M253.544 124.858C253.544 124.858 249.143 119.828 242.909 122.015C244.271 123.417 245.976 124.421 247.847 124.921C249.717 125.421 251.685 125.399 253.544 124.858Z" fill="#90DAF3"/>
<path d="M34.7402 127.961C34.7402 127.961 29.2424 124.243 23.7312 127.961C25.3979 128.969 27.299 129.501 29.2357 129.501C31.1724 129.501 33.0735 128.969 34.7402 127.961Z" fill="#90DAF3"/>
<path d="M166.742 146.756C166.742 146.756 161.244 143.038 155.746 146.756C157.412 147.76 159.311 148.289 161.244 148.289C163.178 148.289 165.077 147.76 166.742 146.756Z" fill="#90DAF3"/>
<path d="M138.905 178.21C138.905 178.21 133.407 174.492 127.91 178.21C129.574 179.218 131.473 179.75 133.407 179.75C135.342 179.75 137.241 179.218 138.905 178.21Z" fill="#2163CA"/>
<path d="M104.741 237.331C104.741 237.331 100.594 232.082 94.2538 233.913C95.542 235.391 97.195 236.487 99.0399 237.089C100.885 237.69 102.854 237.773 104.741 237.331Z" fill="#2163CA"/>
<path d="M161.084 173.973C161.084 173.973 156.389 169.23 150.289 171.799C151.732 173.117 153.496 174.015 155.395 174.397C157.294 174.779 159.259 174.633 161.084 173.973Z" fill="#2163CA"/>
<path d="M264.794 174.219C264.794 174.219 260.099 169.489 254.012 172.059C255.455 173.373 257.217 174.267 259.114 174.647C261.011 175.027 262.972 174.879 264.794 174.219Z" fill="#2163CA"/>
<path d="M344.895 183.705C343.953 182.804 342.783 182.192 341.518 181.938C340.252 181.684 338.942 181.799 337.738 182.27C338.696 183.142 339.866 183.735 341.124 183.987C342.383 184.239 343.685 184.142 344.895 183.705Z" fill="#2163CA"/>
<path d="M133.421 127.223C133.421 127.223 127.923 123.505 122.425 127.223C124.091 128.227 125.989 128.756 127.923 128.756C129.857 128.756 131.755 128.227 133.421 127.223Z" fill="#90DAF3"/>
<path d="M186.192 142.956C186.192 142.956 180.695 139.238 175.197 142.956C176.861 143.964 178.76 144.496 180.694 144.496C182.629 144.496 184.528 143.964 186.192 142.956Z" fill="#90DAF3"/>
<path d="M175.224 192.658C175.224 192.658 169.712 188.94 164.215 192.658C165.881 193.666 167.782 194.198 169.719 194.198C171.656 194.198 173.557 193.666 175.224 192.658Z" fill="#2163CA"/>
<path d="M180.694 115.836C180.694 115.836 175.196 112.118 169.685 115.836C171.352 116.844 173.253 117.376 175.19 117.376C177.126 117.376 179.028 116.844 180.694 115.836Z" fill="#90DAF3"/>
<path d="M278.559 153.222C278.559 153.222 273.061 149.504 267.549 153.222C269.216 154.23 271.117 154.762 273.054 154.762C274.991 154.762 276.892 154.23 278.559 153.222Z" fill="#90DAF3"/>
<path d="M135.976 106.855C135.976 106.855 130.478 103.123 124.98 106.855C126.645 107.859 128.544 108.388 130.478 108.388C132.412 108.388 134.31 107.859 135.976 106.855Z" fill="#90DAF3"/>
<path d="M152.897 101.798C152.897 101.798 148.443 96.8355 142.196 99.0636C143.574 100.46 145.296 101.452 147.179 101.933C149.063 102.414 151.038 102.367 152.897 101.798Z" fill="#90DAF3"/>
<path d="M63.5674 131.364C63.5674 131.364 58.0562 127.646 52.5583 131.364C54.226 132.37 56.1267 132.9 58.0628 132.9C59.999 132.9 61.8997 132.37 63.5674 131.364Z" fill="#90DAF3"/>
<path d="M64.8916 154.288C64.8916 154.288 59.3938 150.57 53.8825 154.288C55.5492 155.296 57.4504 155.828 59.3871 155.828C61.3238 155.828 63.2249 155.296 64.8916 154.288Z" fill="#2163CA"/>
<path d="M130.063 206.055C130.063 206.055 125.93 200.806 119.589 202.651C120.876 204.126 122.527 205.22 124.37 205.819C126.213 206.418 128.179 206.499 130.063 206.055Z" fill="#2163CA"/>
<path d="M150.329 190.622C149.504 190.097 148.552 189.819 147.58 189.819C146.608 189.819 145.656 190.097 144.831 190.622C145.662 191.13 146.612 191.399 147.58 191.399C148.548 191.399 149.498 191.13 150.329 190.622Z" fill="#2163CA"/>
<path d="M138.651 142.259C138.651 142.259 134.638 136.874 128.271 138.514C129.514 140.031 131.133 141.179 132.96 141.838C134.786 142.497 136.751 142.643 138.651 142.259Z" fill="#90DAF3"/>
<path d="M122.345 155.478C122.345 155.478 118.332 150.106 111.978 151.746C113.219 153.261 114.837 154.407 116.661 155.063C118.485 155.72 120.448 155.863 122.345 155.478Z" fill="#90DAF3"/>
<path d="M87.458 106.841C87.458 106.841 83.445 101.469 77.091 103.109C78.3327 104.624 79.9502 105.77 81.7742 106.427C83.5981 107.083 85.5613 107.226 87.458 106.841Z" fill="#90DAF3"/>
<path d="M83.5254 86.3236C83.5254 86.3236 79.5123 80.9514 73.145 82.5918C74.3897 84.1067 76.0096 85.2522 77.8356 85.9087C79.6616 86.5651 81.6267 86.7084 83.5254 86.3236Z" fill="#90DAF3"/>
<path d="M44.8125 72.8588C44.8125 72.8588 44.5985 66.1197 38.4452 63.6865C38.6068 65.6576 39.2828 67.5482 40.4027 69.1615C41.5227 70.7748 43.0454 72.0515 44.8125 72.8588Z" fill="#90DAF3"/>
<path d="M127.548 116.656C126.779 116.167 125.892 115.907 124.986 115.907C124.081 115.907 123.193 116.167 122.425 116.656C123.201 117.124 124.085 117.371 124.986 117.371C125.887 117.371 126.772 117.124 127.548 116.656Z" fill="#90DAF3"/>
<path d="M120.231 118.46C120.231 118.46 114.734 114.742 109.236 118.46C110.901 119.464 112.8 119.994 114.734 119.994C116.667 119.994 118.566 119.464 120.231 118.46Z" fill="#90DAF3"/>
<path d="M125.742 82.7287C125.742 82.7287 120.244 79.0105 114.733 82.7287C116.4 83.7366 118.301 84.2684 120.238 84.2684C122.174 84.2684 124.075 83.7366 125.742 82.7287Z" fill="#90DAF3"/>
<path d="M125.676 121.947C125.676 121.947 119.71 119.076 114.8 123.573C116.589 124.324 118.543 124.569 120.456 124.282C122.37 123.996 124.172 123.189 125.676 121.947Z" fill="#90DAF3"/>
<path d="M131.12 109.329C131.12 109.329 125.154 106.459 120.245 110.956C122.034 111.706 123.987 111.951 125.901 111.665C127.814 111.379 129.617 110.572 131.12 109.329Z" fill="#90DAF3"/>
<path d="M130.09 128.644C130.09 128.644 125.542 123.751 119.388 126.102C120.785 127.467 122.516 128.423 124.398 128.871C126.281 129.318 128.247 129.24 130.09 128.644Z" fill="#90DAF3"/>
<path d="M106.118 148.547C106.118 148.547 100.139 145.69 95.2295 150.187C97.0221 150.934 98.978 151.176 100.893 150.887C102.808 150.599 104.613 149.791 106.118 148.547Z" fill="#90DAF3"/>
<path d="M93.4912 116.848C93.4912 116.848 87.9934 113.13 82.4821 116.848C84.1489 117.856 86.05 118.387 87.9867 118.387C89.9234 118.387 91.8245 117.856 93.4912 116.848Z" fill="#90DAF3"/>
<path d="M143.213 106.007C143.213 106.007 137.715 102.289 132.217 106.007C133.881 107.015 135.78 107.547 137.715 107.547C139.65 107.547 141.549 107.015 143.213 106.007Z" fill="#90DAF3"/>
<path d="M146.597 147.782C146.597 147.782 141.099 144.05 135.601 147.782C137.267 148.786 139.165 149.315 141.099 149.315C143.033 149.315 144.931 148.786 146.597 147.782Z" fill="#90DAF3"/>
<path d="M127.321 182.475C127.321 182.475 123.188 177.212 116.834 179.057C118.124 180.532 119.777 181.627 121.621 182.228C123.466 182.829 125.434 182.914 127.321 182.475Z" fill="#2163CA"/>
<path d="M140.979 174.997C140.979 174.997 136.283 170.254 130.197 172.824C131.637 174.142 133.399 175.039 135.296 175.422C137.193 175.804 139.156 175.658 140.979 174.997Z" fill="#2163CA"/>
<path d="M113.329 128.247C113.329 128.247 107.831 124.516 102.333 128.247C103.999 129.251 105.897 129.781 107.831 129.781C109.765 129.781 111.663 129.251 113.329 128.247Z" fill="#90DAF3"/>
<path d="M155.118 193.752C155.118 193.752 149.62 190.034 144.122 193.752C145.787 194.76 147.686 195.292 149.62 195.292C151.555 195.292 153.454 194.76 155.118 193.752Z" fill="#2163CA"/>
<path d="M115.91 107.88C115.91 107.88 110.412 104.148 104.914 107.88C106.58 108.884 108.479 109.414 110.412 109.414C112.346 109.414 114.245 108.884 115.91 107.88Z" fill="#90DAF3"/>
<path d="M132.806 102.823C132.806 102.823 128.338 97.8609 122.104 100.089C123.481 101.488 125.202 102.481 127.086 102.963C128.97 103.444 130.946 103.396 132.806 102.823Z" fill="#90DAF3"/>
<path d="M110.56 200.792C110.56 200.792 106.426 195.543 100.086 197.374C101.372 198.851 103.022 199.947 104.865 200.548C106.707 201.149 108.674 201.233 110.56 200.792Z" fill="#2163CA"/>
<path d="M45.375 203.909C45.375 203.909 44.3851 197.238 37.991 195.57C38.3769 197.509 39.266 199.306 40.5651 200.773C41.8642 202.24 43.5256 203.323 45.375 203.909Z" fill="#2163CA"/>
<path d="M82.6562 189.857C82.6562 189.857 81.6663 183.2 75.2722 181.532C75.6603 183.469 76.5504 185.263 77.8494 186.727C79.1483 188.192 80.8085 189.273 82.6562 189.857Z" fill="#2163CA"/>
<path d="M91.832 168.067C91.832 168.067 90.8422 161.396 84.4481 159.729C84.834 161.667 85.7231 163.464 87.0222 164.931C88.3213 166.398 89.9826 167.481 91.832 168.067Z" fill="#2163CA"/>
<path d="M45.375 172.237C45.375 172.237 44.3851 165.566 37.991 163.898C38.3769 165.837 39.266 167.634 40.5651 169.101C41.8642 170.568 43.5256 171.651 45.375 172.237Z" fill="#2163CA"/>
<path d="M130.224 191.647C129.399 191.123 128.446 190.845 127.475 190.845C126.503 190.845 125.551 191.123 124.726 191.647C125.556 192.156 126.506 192.424 127.475 192.424C128.443 192.424 129.393 192.156 130.224 191.647Z" fill="#2163CA"/>
<path d="M118.492 143.284C118.492 143.284 114.479 137.898 108.125 139.538C109.366 141.055 110.983 142.202 112.807 142.861C114.631 143.52 116.594 143.666 118.492 143.284Z" fill="#90DAF3"/>
<path d="M102.253 156.449C102.253 156.449 98.2399 151.076 91.8859 152.717C93.1276 154.232 94.7452 155.377 96.5691 156.034C98.393 156.691 100.356 156.834 102.253 156.449Z" fill="#90DAF3"/>
<path d="M107.456 117.682C106.688 117.192 105.8 116.933 104.894 116.933C103.989 116.933 103.101 117.192 102.333 117.682C103.108 118.151 103.993 118.398 104.894 118.398C105.796 118.398 106.68 118.151 107.456 117.682Z" fill="#90DAF3"/>
<path d="M48.1572 82.4272C47.3861 81.938 46.4966 81.6787 45.5889 81.6787C44.6813 81.6787 43.7917 81.938 43.0206 82.4272C43.7987 82.8961 44.6856 83.1434 45.5889 83.1434C46.4923 83.1434 47.3791 82.8961 48.1572 82.4272Z" fill="#90DAF3"/>
<path d="M97.4639 69.3598C96.6928 68.8706 95.8032 68.6113 94.8955 68.6113C93.9879 68.6113 93.0983 68.8706 92.3272 69.3598C93.1053 69.8287 93.9922 70.076 94.8955 70.076C95.7989 70.076 96.6857 69.8287 97.4639 69.3598Z" fill="#90DAF3"/>
<path d="M98.333 128.795C97.5645 128.305 96.677 128.046 95.7714 128.046C94.8657 128.046 93.9782 128.305 93.2097 128.795C93.9853 129.264 94.8701 129.512 95.7714 129.512C96.6727 129.512 97.5574 129.264 98.333 128.795Z" fill="#90DAF3"/>
<path d="M95.6445 117.832C95.6445 117.832 93.6246 111.421 87.0566 110.819C87.741 112.668 88.8994 114.294 90.4103 115.528C91.9213 116.762 93.7292 117.558 95.6445 117.832Z" fill="#0355B3"/>
<path d="M128.244 143.995C128.244 143.995 126.211 137.584 119.643 136.982C120.328 138.833 121.489 140.46 123.002 141.694C124.516 142.928 126.326 143.723 128.244 143.995Z" fill="#0355B3"/>
<path d="M125.515 98.8994C125.515 98.8994 121.809 93.3222 115.335 94.6345C116.505 96.2094 118.066 97.4355 119.856 98.1855C121.646 98.9355 123.6 99.182 125.515 98.8994Z" fill="#1372EC"/>
<path d="M95.9385 134.112C95.9385 134.112 95.1626 127.414 88.8354 125.527C89.1549 127.479 89.9832 129.306 91.2332 130.816C92.4832 132.327 94.1087 133.466 95.9385 134.112Z" fill="#135BE5"/>
<path d="M102.935 80.7047C102.056 79.463 100.855 78.4975 99.4673 77.9176C98.0795 77.3378 96.5605 77.1668 95.0824 77.424C95.9849 78.6381 97.1893 79.5827 98.5703 80.1597C99.9512 80.7367 101.458 80.9249 102.935 80.7047Z" fill="#1397EC"/>
<path d="M84.1006 127.688C83.8209 126.547 83.2339 125.51 82.4064 124.693C81.5788 123.876 80.5437 123.313 79.4187 123.067C79.7228 124.195 80.3177 125.219 81.1413 126.032C81.9649 126.845 82.9869 127.416 84.1006 127.688Z" fill="#2798EC"/>
<path d="M113.315 88.3596C112.877 87.7399 112.277 87.2579 111.585 86.9681C110.892 86.6782 110.134 86.592 109.396 86.7193C109.845 87.3274 110.446 87.8007 111.135 88.0894C111.825 88.378 112.578 88.4714 113.315 88.3596Z" fill="#1372EC"/>
<path d="M136.872 131.72C136.433 131.1 135.834 130.618 135.141 130.328C134.449 130.039 133.691 129.952 132.953 130.08C133.4 130.689 134.001 131.163 134.691 131.452C135.381 131.741 136.135 131.833 136.872 131.72Z" fill="#1372EC"/>
<path d="M112.085 117.995C111.646 117.376 111.047 116.894 110.354 116.604C109.662 116.314 108.904 116.228 108.166 116.355C108.617 116.96 109.218 117.431 109.907 117.719C110.596 118.007 111.348 118.103 112.085 117.995Z" fill="#1372EC"/>
<path d="M109.222 137.16C109.222 137.16 107.202 130.749 100.62 130.147C101.306 131.998 102.466 133.625 103.98 134.859C105.493 136.093 107.304 136.888 109.222 137.16Z" fill="#0355B3"/>
<path d="M106.547 92.0644C106.547 92.0644 102.828 86.4873 96.3671 87.7995C97.5349 89.3766 99.0956 90.6044 100.886 91.3546C102.677 92.1048 104.632 92.35 106.547 92.0644Z" fill="#1372EC"/>
<path d="M76.957 127.277C76.957 127.277 76.1812 120.579 69.854 118.692C70.1775 120.642 71.0073 122.467 72.2567 123.977C73.5062 125.487 75.1295 126.627 76.957 127.277Z" fill="#1372EC"/>
<path d="M94.334 81.5393C93.8954 80.9196 93.2959 80.4376 92.6033 80.1477C91.9107 79.8579 91.1526 79.7717 90.4146 79.899C90.8662 80.5038 91.4674 80.9746 92.1563 81.2629C92.8453 81.5513 93.597 81.6467 94.334 81.5393Z" fill="#1372EC"/>
<path d="M117.891 124.886C117.45 124.268 116.85 123.789 116.158 123.502C115.465 123.214 114.708 123.13 113.971 123.259C114.422 123.863 115.024 124.333 115.713 124.619C116.403 124.905 117.155 124.997 117.891 124.886Z" fill="#1372EC"/>
<path d="M93.1035 111.16C92.6649 110.541 92.0654 110.059 91.3728 109.769C90.6802 109.479 89.9221 109.393 89.1841 109.52C89.6357 110.125 90.2369 110.596 90.9259 110.884C91.6148 111.172 92.3665 111.268 93.1035 111.16Z" fill="#1372EC"/>
<path d="M116.633 127.947C116.633 127.947 112.379 122.794 106.078 124.776C107.398 126.223 109.074 127.281 110.931 127.839C112.787 128.397 114.757 128.434 116.633 127.947Z" fill="#0355B3"/>
<path d="M174.996 159.879C174.996 159.879 170.742 154.726 164.442 156.708C165.761 158.155 167.437 159.212 169.294 159.77C171.151 160.328 173.12 160.366 174.996 159.879Z" fill="#0355B3"/>
<path d="M156.496 139.525C156.496 139.525 152.242 134.386 145.942 136.368C147.264 137.811 148.94 138.865 150.797 139.421C152.653 139.976 154.621 140.012 156.496 139.525Z" fill="#0355B3"/>
<path d="M137.246 98.8449C137.246 98.8449 131.748 95.1268 126.25 98.8449C127.915 99.853 129.814 100.385 131.748 100.385C133.683 100.385 135.582 99.853 137.246 98.8449Z" fill="#1372EC"/>
<path d="M67.9678 73.0089C67.9678 73.0089 62.4566 69.2908 56.9587 73.0089C58.6254 74.0169 60.5265 74.5486 62.4632 74.5486C64.3999 74.5486 66.301 74.0169 67.9678 73.0089Z" fill="#1372EC"/>
<path d="M44.7057 23.8125C44.7057 23.8125 39.5957 28.0637 41.4284 34.5431C42.8657 33.2189 43.9283 31.5242 44.5049 29.6364C45.0814 27.7486 45.1508 25.7371 44.7057 23.8125Z" fill="#1381EC"/>
<path d="M122.934 142.888C122.934 142.888 119.737 136.996 113.182 137.693C114.202 139.373 115.645 140.742 117.361 141.656C119.077 142.57 121.002 142.996 122.934 142.888Z" fill="#1372EC"/>
<path d="M85.8125 121.755C85.8125 121.755 81.6791 116.492 75.3251 118.338C76.615 119.813 78.2682 120.908 80.1125 121.509C81.9568 122.11 83.9251 122.195 85.8125 121.755Z" fill="#135BE5"/>
<path d="M14.4746 92.4743C14.4746 92.4743 10.3412 87.2252 4.00063 89.0569C5.28503 90.5355 6.93549 91.6332 8.77861 92.2346C10.6217 92.836 12.5893 92.9188 14.4746 92.4743Z" fill="#1372EC"/>
<path d="M93.4912 115.384C93.4912 115.384 89.3578 110.135 83.0172 111.967C84.3016 113.446 85.9521 114.543 87.7952 115.145C89.6383 115.746 91.6059 115.829 93.4912 115.384Z" fill="#135BE5"/>
<path d="M63.4736 102.167C63.4736 102.167 61.7881 95.6463 55.2603 94.6895C55.849 96.5729 56.9218 98.2604 58.3665 99.5757C59.8113 100.891 61.575 101.786 63.4736 102.167Z" fill="#135BE5"/>
<path d="M20.0654 56.5105C20.0654 56.5105 18.38 49.9901 11.8521 49.0332C12.4409 50.9167 13.5136 52.6041 14.9583 53.9194C16.4031 55.2347 18.1668 56.1295 20.0654 56.5105Z" fill="#1372EC"/>
<path d="M109.597 90.7525C108.326 89.9459 106.859 89.5186 105.363 89.5186C103.867 89.5186 102.4 89.9459 101.129 90.7525C102.411 91.5283 103.873 91.9377 105.363 91.9377C106.853 91.9377 108.315 91.5283 109.597 90.7525Z" fill="#1397EC"/>
<path d="M144.845 157.049C143.574 156.243 142.107 155.815 140.611 155.815C139.115 155.815 137.648 156.243 136.377 157.049C137.659 157.825 139.121 158.235 140.611 158.235C142.101 158.235 143.563 157.825 144.845 157.049Z" fill="#1397EC"/>
<path d="M79.1641 96.316C78.4821 95.3693 77.554 94.637 76.4853 94.202C75.4165 93.7671 74.2499 93.6471 73.1178 93.8555C73.8187 94.78 74.7491 95.4959 75.8124 95.9286C76.8757 96.3613 78.033 96.4951 79.1641 96.316Z" fill="#2798EC"/>
<path d="M109.597 141.521C108.914 140.575 107.985 139.844 106.917 139.409C105.849 138.974 104.682 138.853 103.55 139.06C104.248 139.988 105.179 140.707 106.243 141.14C107.307 141.573 108.465 141.704 109.597 141.521Z" fill="#2798EC"/>
<path d="M76.1416 138.883C75.4558 137.938 74.5248 137.207 73.4538 136.775C72.3829 136.342 71.2148 136.225 70.0819 136.436C70.7846 137.362 71.7178 138.077 72.7839 138.507C73.85 138.938 75.0097 139.068 76.1416 138.883Z" fill="#2798EC"/>
<path d="M150.597 196.801C149.91 195.855 148.98 195.124 147.909 194.69C146.839 194.255 145.671 194.134 144.537 194.34C145.237 195.269 146.17 195.988 147.236 196.421C148.303 196.854 149.463 196.985 150.597 196.801Z" fill="#2798EC"/>
<path d="M52.7051 88.6468C52.5403 87.7792 52.1409 86.976 51.5522 86.3285C50.9634 85.681 50.209 85.215 49.3743 84.9834C49.5585 85.8425 49.9646 86.6354 50.5504 87.2797C51.1362 87.924 51.8802 88.3961 52.7051 88.6468Z" fill="#63C7EC"/>
<path d="M38.3255 44.3986C38.8343 43.686 39.1368 42.8416 39.1983 41.9617C39.2598 41.0819 39.0778 40.2021 38.6733 39.4229C38.1827 40.1436 37.8914 40.9862 37.8302 41.8619C37.769 42.7376 37.9401 43.6139 38.3255 44.3986Z" fill="#63C7EC"/>
<path d="M122.051 93.8277C121.416 93.4258 120.684 93.2129 119.937 93.2129C119.19 93.2129 118.459 93.4258 117.824 93.8277C118.464 94.2137 119.194 94.4172 119.937 94.4172C120.681 94.4172 121.41 94.2137 122.051 93.8277Z" fill="#1372EC"/>
<path d="M177.31 97.204C176.673 96.7994 175.939 96.585 175.189 96.585C174.44 96.585 173.705 96.7994 173.069 97.204C173.711 97.594 174.443 97.7998 175.189 97.7998C175.936 97.7998 176.668 97.594 177.31 97.204Z" fill="#1372EC"/>
<path d="M159.934 124.83C159.297 124.425 158.563 124.211 157.813 124.211C157.064 124.211 156.329 124.425 155.693 124.83C156.335 125.22 157.067 125.426 157.813 125.426C158.56 125.426 159.292 125.22 159.934 124.83Z" fill="#1372EC"/>
<path d="M131.963 121.714C131.327 121.309 130.592 121.095 129.843 121.095C129.093 121.095 128.359 121.309 127.722 121.714C128.364 122.104 129.096 122.31 129.843 122.31C130.589 122.31 131.321 122.104 131.963 121.714Z" fill="#1372EC"/>
<path d="M113.489 168.04C112.853 167.635 112.118 167.421 111.369 167.421C110.62 167.421 109.885 167.635 109.249 168.04C109.892 168.426 110.624 168.629 111.369 168.629C112.115 168.629 112.846 168.426 113.489 168.04Z" fill="#1372EC"/>
<path d="M114.76 59.791C114.128 59.3945 113.401 59.1846 112.66 59.1846C111.918 59.1846 111.191 59.3945 110.559 59.791C111.198 60.169 111.922 60.3681 112.66 60.3681C113.397 60.3681 114.122 60.169 114.76 59.791Z" fill="#1372EC"/>
<path d="M52.5049 68.553C52.5049 68.553 53.0667 61.8413 47.2344 58.6836C47.1663 60.6604 47.6196 62.6196 48.5469 64.356C49.4741 66.0923 50.8412 67.5419 52.5049 68.553Z" fill="#1334BD"/>
<path d="M48.7057 52.9562C48.7057 52.9562 53.441 48.2812 51.0867 42.0205C49.7704 43.46 48.8553 45.2334 48.4366 47.1565C48.0179 49.0796 48.1108 51.0822 48.7057 52.9562Z" fill="#1334BD"/>
<path d="M96.541 128.973C96.541 128.973 92.2872 123.819 85.9867 125.801C87.3054 127.25 88.9812 128.308 90.8383 128.866C92.6954 129.424 94.6652 129.461 96.541 128.973Z" fill="#0355B3"/>
<path d="M154.904 160.945C154.904 160.945 150.65 155.792 144.35 157.774C145.669 159.222 147.344 160.281 149.202 160.839C151.059 161.397 153.028 161.434 154.904 160.945Z" fill="#0355B3"/>
<path d="M136.403 140.551C136.403 140.551 132.149 135.397 125.849 137.393C127.169 138.839 128.846 139.895 130.703 140.45C132.56 141.006 134.529 141.041 136.403 140.551Z" fill="#0355B3"/>
<path d="M117.154 99.8703C117.154 99.8703 111.656 96.1522 106.159 99.8703C107.823 100.878 109.722 101.41 111.656 101.41C113.591 101.41 115.49 100.878 117.154 99.8703Z" fill="#1372EC"/>
<path d="M102.842 143.913C102.842 143.913 99.6447 138.021 93.0767 138.718C94.0986 140.4 95.5445 141.769 97.2626 142.683C98.9807 143.597 100.908 144.022 102.842 143.913Z" fill="#1372EC"/>
<path d="M89.5049 91.7779C88.2338 90.9713 86.7673 90.5439 85.2711 90.5439C83.7749 90.5439 82.3085 90.9713 81.0373 91.7779C82.3191 92.5537 83.7814 92.9631 85.2711 92.9631C86.7608 92.9631 88.2232 92.5537 89.5049 91.7779Z" fill="#1397EC"/>
<path d="M124.753 158.075C123.48 157.266 122.011 156.837 120.513 156.837C119.014 156.837 117.545 157.266 116.272 158.075C117.556 158.852 119.02 159.262 120.513 159.262C122.005 159.262 123.469 158.852 124.753 158.075Z" fill="#1397EC"/>
<path d="M89.5049 142.546C88.8208 141.602 87.8925 140.871 86.8243 140.436C85.7562 140.002 84.5906 139.88 83.4585 140.085C84.1566 141.013 85.0867 141.732 86.1508 142.165C87.2149 142.598 88.3737 142.729 89.5049 142.546Z" fill="#2798EC"/>
<path d="M130.491 197.853C129.807 196.909 128.879 196.179 127.811 195.744C126.743 195.309 125.577 195.188 124.445 195.393C125.143 196.321 126.073 197.039 127.137 197.472C128.201 197.905 129.36 198.037 130.491 197.853Z" fill="#2798EC"/>
<path d="M101.958 94.8535C101.322 94.4488 100.587 94.2344 99.8378 94.2344C99.0883 94.2344 98.3539 94.4488 97.7175 94.8535C98.3604 95.2392 99.0923 95.4426 99.8378 95.4426C100.583 95.4426 101.315 95.2392 101.958 94.8535Z" fill="#1372EC"/>
<path d="M139.828 125.856C139.193 125.454 138.461 125.241 137.715 125.241C136.968 125.241 136.236 125.454 135.601 125.856C136.24 126.246 136.97 126.452 137.715 126.452C138.459 126.452 139.189 126.246 139.828 125.856Z" fill="#1372EC"/>
<path d="M111.804 122.739C111.169 122.337 110.437 122.124 109.69 122.124C108.943 122.124 108.211 122.337 107.577 122.739C108.216 123.129 108.946 123.335 109.69 123.335C110.434 123.335 111.165 123.129 111.804 122.739Z" fill="#1372EC"/>
<path d="M93.3838 169.065C92.749 168.663 92.017 168.45 91.2702 168.45C90.5235 168.45 89.7915 168.663 89.1567 169.065C89.797 169.451 90.5268 169.655 91.2702 169.655C92.0136 169.655 92.7435 169.451 93.3838 169.065Z" fill="#1372EC"/>
<path d="M75.2314 105.297C74.678 104.563 73.9359 104 73.088 103.672C72.24 103.344 71.3196 103.263 70.4292 103.438C70.9924 104.16 71.7356 104.714 72.5807 105.041C73.4257 105.368 74.3414 105.456 75.2314 105.297Z" fill="#1334BD"/>
<path d="M63.2726 68.2384C63.4802 67.3369 63.4361 66.3938 63.1452 65.5166C62.8543 64.6394 62.3284 63.8632 61.6272 63.2764C61.4408 64.1782 61.4953 65.1147 61.7847 65.9877C62.0742 66.8607 62.5881 67.6381 63.2726 68.2384Z" fill="#1334BD"/>
<path d="M82.2676 113.526C81.3769 112.311 80.1738 111.373 78.7922 110.815C77.4106 110.258 75.9047 110.103 74.4421 110.368C75.3533 111.559 76.559 112.479 77.9347 113.034C79.3104 113.59 80.8062 113.759 82.2676 113.526Z" fill="#279FEC"/>
<path d="M69.5732 105.775C69.4009 104.916 68.998 104.124 68.4097 103.487C67.8214 102.849 67.0709 102.392 66.2424 102.166C66.4326 103.016 66.8416 103.799 67.4272 104.434C68.0128 105.068 68.7537 105.531 69.5732 105.775Z" fill="#279FEC"/>
<path d="M53.7489 99.3365C54.1339 97.8573 54.1061 96.2975 53.6688 94.8336C53.2315 93.3697 52.402 92.06 51.2741 91.0527C50.9239 92.5335 50.9688 94.0831 51.404 95.5401C51.8393 96.9971 52.6491 98.3081 53.7489 99.3365Z" fill="#279FEC"/>
<path d="M129.287 51.5894C128.016 50.7829 126.55 50.3555 125.053 50.3555C123.557 50.3555 122.091 50.7829 120.82 51.5894C122.101 52.3653 123.564 52.7746 125.053 52.7746C126.543 52.7746 128.005 52.3653 129.287 51.5894Z" fill="#27C7EC"/>
<path d="M96.2061 73.9391C94.7402 73.6315 93.2194 73.7489 91.8153 74.2778C90.4113 74.8068 89.1799 75.7264 88.2602 76.9327C89.7256 77.2048 91.2356 77.0707 92.633 76.5442C94.0304 76.0177 95.2642 75.1181 96.2061 73.9391Z" fill="#27C7EC"/>
<path d="M81.3184 59.8862C80.0585 59.0612 78.598 58.6124 77.1017 58.5907C75.6055 58.5689 74.1331 58.9751 72.8508 59.7632C74.1222 60.5564 75.5787 60.9863 77.0681 61.0079C78.5576 61.0295 80.0254 60.6422 81.3184 59.8862Z" fill="#27C7EC"/>
<path d="M45.5889 98.5577C44.703 97.3235 43.4968 96.3673 42.1068 95.7972C40.7167 95.2271 39.1983 95.0659 37.7233 95.3317C38.6303 96.5414 39.8392 97.4792 41.2232 98.0469C42.6072 98.6145 44.1152 98.7909 45.5889 98.5577Z" fill="#27C7EC"/>
<path d="M45.0133 68.5806C45.7291 67.2378 46.0633 65.7174 45.9782 64.1908C45.8931 62.6643 45.3921 61.1924 44.5318 59.9414C43.8452 61.2928 43.5276 62.8083 43.6123 64.3285C43.697 65.8488 44.181 67.3176 45.0133 68.5806Z" fill="#27C7EC"/>
<path d="M39.0879 81.6616C39.9941 80.4425 40.5483 78.9884 40.6878 77.4641C40.8273 75.9397 40.5464 74.4058 39.8771 73.0361C39.0011 74.2696 38.4657 75.721 38.3269 77.2385C38.188 78.7559 38.4508 80.2836 39.0879 81.6616Z" fill="#27C7EC"/>
<path d="M57.4 86.1452C57.4279 84.6109 57.034 83.0993 56.2631 81.7824C55.4923 80.4654 54.3753 79.3958 53.0391 78.6953C53.0426 80.2232 53.4496 81.7218 54.2171 83.033C54.9846 84.3442 56.0843 85.4194 57.4 86.1452Z" fill="#27C7EC"/>
<path d="M49.5079 92.5972C49.9983 91.1508 50.0828 89.593 49.7519 88.1001C49.4209 86.6071 48.6877 85.2386 47.6352 84.1494C47.1794 85.6 47.1126 87.1489 47.442 88.6348C47.7714 90.1206 48.4848 91.489 49.5079 92.5972Z" fill="#27C7EC"/>
<path d="M76.0605 116C75.896 115.136 75.4982 114.336 74.9119 113.691C74.3256 113.046 73.5743 112.582 72.7431 112.351C72.9257 113.207 73.3298 113.997 73.9134 114.639C74.4969 115.281 75.2385 115.751 76.0605 116Z" fill="#27C7EC"/>
<path d="M25.4033 75.6068C25.2378 74.741 24.8378 73.94 24.249 73.2948C23.6602 72.6496 22.9061 72.1861 22.0724 71.957C22.2561 72.8148 22.6623 73.6063 23.2484 74.2484C23.8344 74.8906 24.5788 75.3598 25.4033 75.6068Z" fill="#27C7EC"/>
<path d="M65.5201 86.8156C65.7607 85.9639 65.7628 85.0604 65.5264 84.2075C65.29 83.3546 64.8244 82.5865 64.1824 81.9902C63.9602 82.8431 63.967 83.7415 64.2024 84.5907C64.4379 85.4399 64.8931 86.2085 65.5201 86.8156Z" fill="#27C7EC"/>
<path d="M49.6415 81.3199C50.0265 79.8407 49.9987 78.2809 49.5614 76.817C49.124 75.3531 48.2945 74.0434 47.1667 73.0361C46.8165 74.5169 46.8613 76.0665 47.2966 77.5235C47.7319 78.9805 48.5416 80.2915 49.6415 81.3199Z" fill="#27C7EC"/>
<path d="M15.705 43.565C16.09 42.0858 16.0622 40.526 15.6249 39.0621C15.1875 37.5982 14.358 36.2885 13.2302 35.2812C12.8799 36.762 12.9248 38.3116 13.3601 39.7686C13.7954 41.2256 14.6051 42.5366 15.705 43.565Z" fill="#27C7EC"/>
<path d="M92.1934 128.794C91.3031 127.563 90.0934 126.611 88.7009 126.045C87.3085 125.48 85.789 125.324 84.3144 125.596C85.2257 126.803 86.4381 127.737 87.8245 128.3C89.2109 128.862 90.72 129.033 92.1934 128.794Z" fill="#27C7EC"/>
<path d="M56.7314 112.419C55.6282 111.386 54.2646 110.69 52.7944 110.407C51.3242 110.124 49.806 110.267 48.411 110.82C49.5309 111.823 50.8938 112.5 52.3573 112.782C53.8208 113.063 55.3314 112.938 56.7314 112.419Z" fill="#27C7EC"/>
<path d="M130.879 67.0633C130.089 65.7622 128.959 64.7128 127.617 64.034C126.274 63.3552 124.772 63.0739 123.281 63.2221C124.094 64.4994 125.229 65.5299 126.565 66.2056C127.902 66.8814 129.392 67.1776 130.879 67.0633Z" fill="#27C7EC"/>
<path d="M91.5645 72.175C90.3819 71.2363 88.9661 70.6543 87.4768 70.4948C85.9875 70.3354 84.4843 70.6049 83.1371 71.2728C84.3339 72.1808 85.7475 72.7436 87.23 72.9023C88.7125 73.061 90.2095 72.8098 91.5645 72.175Z" fill="#27C7EC"/>
<path d="M84.3008 52.8468C83.5346 51.5268 82.4214 50.453 81.0877 49.7474C79.754 49.0418 78.2533 48.7327 76.7563 48.8553C77.5469 50.1519 78.6648 51.2069 79.9924 51.9092C81.32 52.6116 82.8083 52.9355 84.3008 52.8468Z" fill="#27C7EC"/>
<path d="M35.5156 71.3827C35.2502 69.878 34.5784 68.4791 33.5762 67.3439C32.574 66.2086 31.2812 65.3822 29.8438 64.958C30.1373 66.4508 30.8189 67.8352 31.8169 68.9657C32.815 70.0963 34.0927 70.9312 35.5156 71.3827Z" fill="#27C7EC"/>
<path d="M51.4747 65.5864C52.1694 64.23 52.4787 62.7019 52.3675 61.1751C52.2564 59.6483 51.7293 58.1838 50.8459 56.9473C50.1848 58.3131 49.8944 59.8351 50.005 61.3546C50.1155 62.8742 50.6231 64.3356 51.4747 65.5864Z" fill="#27C7EC"/>
<path d="M55.3003 100.799C55.5248 99.9469 55.5123 99.0478 55.2642 98.2026C55.0161 97.3574 54.5422 96.5997 53.8957 96.0146C53.6864 96.8675 53.7063 97.7622 53.9535 98.6044C54.2008 99.4465 54.6661 100.205 55.3003 100.799Z" fill="#27C7EC"/>
<path d="M52.7321 16.8547C53.5024 16.4576 54.1479 15.8471 54.5949 15.0929C55.042 14.3388 55.2725 13.4715 55.2603 12.5898C54.5035 13.0039 53.8696 13.6183 53.4248 14.3686C52.98 15.1189 52.7408 15.9776 52.7321 16.8547Z" fill="#27C7EC"/>
<path d="M76.0479 132.376C75.889 131.509 75.4951 130.704 74.911 130.054C74.3269 129.404 73.576 128.935 72.7438 128.699C72.9235 129.558 73.3247 130.351 73.9056 130.998C74.4866 131.644 75.2262 132.12 76.0479 132.376Z" fill="#27C7EC"/>
<path d="M27.3423 41.6652C27.5795 40.8197 27.58 39.9231 27.3435 39.0774C27.107 38.2317 26.6431 37.4707 26.0046 36.8809C25.7914 37.7279 25.803 38.6176 26.0381 39.4585C26.2733 40.2994 26.7234 41.0611 27.3423 41.6652Z" fill="#27C7EC"/>
<path d="M58.4707 69.8517C59.0596 69.2075 59.4605 68.4079 59.6284 67.5432C59.7962 66.6785 59.7242 65.7831 59.4205 64.958C58.8473 65.6117 58.4566 66.4109 58.2895 67.2719C58.1224 68.1329 58.185 69.0239 58.4707 69.8517Z" fill="#27C7EC"/>
<path d="M46.6056 57.7534C47.5856 56.5983 48.2302 55.1862 48.4666 53.6766C48.7029 52.167 48.5217 50.6199 47.9433 49.21C46.9925 50.3813 46.3668 51.792 46.1315 53.2948C45.8962 54.7976 46.0599 56.3374 46.6056 57.7534Z" fill="#27C7EC"/>
<path d="M56.1434 34.0641C57.4357 33.3051 58.4956 32.1933 59.2044 30.8533C59.9132 29.5134 60.2429 27.9982 60.1564 26.4775C58.8853 27.2605 57.8426 28.3771 57.1368 29.7113C56.4311 31.0455 56.0881 32.5485 56.1434 34.0641Z" fill="#27C7EC"/>
<path d="M32.5197 8.54347C33.4997 7.38833 34.1443 5.97627 34.3806 4.46665C34.617 2.95703 34.4358 1.40995 33.8574 0C32.9078 1.17208 32.2829 2.58272 32.0477 4.08521C31.8124 5.5877 31.9754 7.12716 32.5197 8.54347Z" fill="#27C7EC"/>
<path d="M64.2227 119.567C63.9562 118.061 63.2825 116.661 62.2778 115.525C61.2731 114.39 59.9774 113.565 58.5375 113.143C58.8361 114.635 59.5211 116.019 60.5211 117.149C61.521 118.279 62.7993 119.114 64.2227 119.567Z" fill="#27C7EC"/>
<path d="M39.502 88.839C38.9594 87.4146 38.0382 86.1736 36.8422 85.2558C35.6462 84.3379 34.2231 83.7799 32.7333 83.6445C33.3011 85.0517 34.2292 86.2766 35.4202 87.1906C36.6113 88.1046 38.0212 88.674 39.502 88.839Z" fill="#27C7EC"/>
</g>
<defs>
<clipPath id="clip0_7923_3392">
<rect width="73.7537" height="94.1779" fill="white" transform="matrix(-1 0 0 1 73.7539 150)"/>
</clipPath>
</defs>
</svg>
