<svg width="332" height="319" viewBox="0 0 332 319" fill="none" xmlns="http://www.w3.org/2000/svg">
<g filter="url(#filter0_f_6_43)">
<path d="M74.6991 151.961V75.397L156.168 68.5063V25.8857L197.03 7L238.658 25.8857V75.397H326V151.961H285.393L261.642 187.691L277.476 231.332L326 238.478V313H74.6991L69.5914 238.478L24.8986 231.332L6 195.602L24.8986 151.961H74.6991Z" fill="url(#paint0_linear_6_43)"/>
<path d="M74.6991 151.961V75.397L156.168 68.5063V25.8857L197.03 7L238.658 25.8857V75.397H326V151.961H285.393L261.642 187.691L277.476 231.332L326 238.478V313H74.6991L69.5914 238.478L24.8986 231.332L6 195.602L24.8986 151.961H74.6991Z" stroke="black"/>
</g>
<path d="M329.027 226.371C328.117 225.795 327.075 225.459 326 225.394C324.924 225.329 323.85 225.538 322.877 226C317.792 228.409 312.239 229.669 306.613 229.691C300.986 229.712 295.423 228.495 290.32 226.126C285.217 223.757 280.699 220.294 277.087 215.982C273.475 211.671 270.858 206.618 269.421 201.181C267.984 195.745 267.763 190.059 268.774 184.528C269.785 178.996 272.002 173.755 275.269 169.177C278.536 164.599 282.772 160.796 287.675 158.039C292.579 155.281 298.031 153.637 303.642 153.223C310.255 152.742 316.88 153.975 322.877 156.802C323.85 157.264 324.924 157.472 325.999 157.407C327.075 157.343 328.116 157.007 329.027 156.432C329.937 155.856 330.687 155.06 331.207 154.118C331.727 153.175 332 152.116 332 151.039L331.999 82.9426C331.993 77.868 329.974 73.0029 326.383 69.4147C322.792 65.8265 317.923 63.8083 312.845 63.8028L247.396 63.8044C249.169 56.9398 249.491 49.7815 248.343 42.7856C247.194 35.7896 244.6 29.1094 240.726 23.1705C236.851 17.2316 231.781 12.1642 225.839 8.29121C219.897 4.41819 213.212 1.82444 206.212 0.675205C199.211 -0.474031 192.047 -0.153553 185.177 1.61622C178.307 3.38599 171.882 6.56625 166.309 10.9544C160.737 15.3425 156.141 20.8424 152.813 27.1035C149.485 33.3646 147.499 40.2497 146.98 47.3202C146.585 52.859 147.087 58.4254 148.467 63.8044L83.0024 63.8028C77.9243 63.8084 73.0558 65.8268 69.465 69.4149C65.8742 73.0031 63.8545 77.8681 63.8488 82.9426L63.8496 141.965C56.98 140.194 49.8166 139.872 42.8156 141.019C35.8147 142.167 29.1297 144.759 23.1866 148.631C17.2435 152.503 12.1726 157.569 8.29688 163.507C4.42116 169.445 1.82562 176.125 0.675622 183.12C-0.474375 190.116 -0.153619 197.274 1.61746 204.139C3.38853 211.004 6.5711 217.425 10.9624 222.993C15.3537 228.562 20.8575 233.155 27.1231 236.48C33.3887 239.806 40.2787 241.791 47.3543 242.308C52.8969 242.703 58.4669 242.202 63.8495 240.822L63.8488 299.86C63.8543 304.935 65.8741 309.8 69.4649 313.388C73.0557 316.976 77.9243 318.994 83.0024 319H312.846C316.417 318.996 319.884 317.997 322.877 316.156C324.139 315.379 325.317 314.453 326.383 313.388C329.974 309.8 331.994 304.935 331.999 299.86L332 231.763C332 230.687 331.728 229.628 331.208 228.685C330.688 227.742 329.937 226.946 329.027 226.371ZM319.23 299.86C319.228 301.552 318.555 303.173 317.358 304.369C316.161 305.565 314.538 306.238 312.846 306.24H83.0024C81.3097 306.238 79.6868 305.566 78.4899 304.37C77.2929 303.173 76.6197 301.552 76.6179 299.86L76.6187 231.763C76.6186 230.687 76.3459 229.628 75.826 228.685C75.3061 227.742 74.5558 226.946 73.6452 226.371C72.7345 225.795 71.693 225.46 70.6176 225.395C69.5422 225.33 68.4678 225.539 67.4946 226C59.4305 229.821 50.2847 230.708 41.6358 228.509C32.9869 226.31 25.3775 221.163 20.121 213.956C14.8645 206.749 12.2907 197.935 12.8437 189.034C13.3968 180.133 17.0421 171.704 23.1505 165.203C28.7033 159.296 35.987 155.302 43.9548 153.792C51.9225 152.283 60.164 153.337 67.4947 156.802C68.4679 157.264 69.5422 157.472 70.6176 157.408C71.693 157.343 72.7345 157.007 73.6451 156.432C74.5558 155.857 75.306 155.061 75.8259 154.118C76.3459 153.175 76.6186 152.116 76.6188 151.039L76.6187 148.631L76.6179 82.9426C76.6197 81.251 77.2929 79.6293 78.4899 78.4333C79.6868 77.2372 81.3097 76.5644 83.0024 76.5626L157.533 76.5642C158.61 76.5644 159.67 76.2921 160.614 75.7727C161.558 75.2533 162.355 74.5037 162.93 73.5937C163.506 72.6837 163.842 71.6429 163.906 70.5682C163.971 69.4936 163.763 68.42 163.3 67.4476C160.624 61.8015 159.371 55.5871 159.65 49.346C159.929 43.105 161.732 37.0269 164.901 31.6419C168.071 26.2569 172.51 21.7284 177.833 18.4514C183.156 15.1744 189.2 13.2483 195.438 12.8412C202.097 12.4127 208.751 13.7283 214.745 16.6581C220.738 19.5879 225.863 24.0304 229.611 29.5461C233.359 35.0618 235.602 41.4598 236.117 48.1072C236.631 54.7546 235.401 61.4211 232.547 67.4476C232.085 68.42 231.876 69.4935 231.941 70.5681C232.006 71.6427 232.342 72.6834 232.917 73.5933C233.493 74.5033 234.29 75.2529 235.233 75.7723C236.177 76.2918 237.237 76.5642 238.314 76.5642L312.846 76.5626C314.538 76.5647 316.161 77.2375 317.358 78.4335C318.555 79.6296 319.228 81.2511 319.23 82.9426L319.231 141.98C313.848 140.602 308.278 140.1 302.735 140.494C295.666 141.021 288.784 143.011 282.527 146.34C276.27 149.668 270.775 154.262 266.391 159.828C262.007 165.394 258.831 171.811 257.063 178.67C255.296 185.53 254.977 192.682 256.126 199.671C257.275 206.661 259.867 213.335 263.737 219.269C267.608 225.203 272.672 230.267 278.608 234.139C283.29 237.194 288.434 239.454 293.831 240.838C295.275 241.209 296.737 241.516 298.214 241.76C305.208 242.913 312.365 242.599 319.231 240.838L319.23 299.86Z" fill="#005673"/>
<defs>
<filter id="filter0_f_6_43" x="1.4458" y="2.45007" width="329.054" height="315.05" filterUnits="userSpaceOnUse" color-interpolation-filters="sRGB">
<feFlood flood-opacity="0" result="BackgroundImageFix"/>
<feBlend mode="normal" in="SourceGraphic" in2="BackgroundImageFix" result="shape"/>
<feGaussianBlur stdDeviation="2" result="effect1_foregroundBlur_6_43"/>
</filter>
<linearGradient id="paint0_linear_6_43" x1="166" y1="7" x2="166" y2="313" gradientUnits="userSpaceOnUse">
<stop stop-color="#2F69CD"/>
<stop offset="0.223799" stop-color="#2D70D3"/>
<stop offset="0.504508" stop-color="#357EE4"/>
<stop offset="0.772457" stop-color="#3E97EE"/>
<stop offset="1" stop-color="#42BEFC"/>
</linearGradient>
</defs>
</svg>
